<svg version="1.1" xmlns="http://www.w3.org/2000/svg" width="580" height="266">
<path d="M0 0 C4.33033663 3.09418099 7.43993801 6.2391051 9.25 11.3125 C10.14904565 16.95561687 10.28970426 21.93131485 6.81323242 26.74560547 C3.22464754 30.34259715 -1.48612615 32.5820726 -5.875 35.0625 C-19.77734692 43.0470969 -19.77734692 43.0470969 -29.375 55.5625 C-30.90173134 66.40526753 -30.90173134 66.40526753 -27.75 76.375 C-26.76 77.014375 -25.77 77.65375 -24.75 78.3125 C-24.16863281 78.73660156 -23.58726563 79.16070312 -22.98828125 79.59765625 C-13.87017001 85.94149429 -3.42423631 86.94204484 7.375 88 C9.23898438 88.19432617 9.23898438 88.19432617 11.140625 88.39257812 C14.17631006 88.70782234 17.21260554 89.01425868 20.25 89.3125 C20.20359375 88.27351563 20.1571875 87.23453125 20.109375 86.1640625 C19.84803201 77.68922789 20.15600588 70.97435244 24.25 63.3125 C24.58 62.6525 24.91 61.9925 25.25 61.3125 C26.9 61.6425 28.55 61.9725 30.25 62.3125 C34.17100683 71.13476536 33.5254857 79.85415757 33.25 89.3125 C46.87252754 89.08476778 57.81699027 85.93450649 69.25 78.3125 C71.9375 78.6875 71.9375 78.6875 74.25 79.3125 C73.755 80.7975 73.755 80.7975 73.25 82.3125 C70.1875 83.5 70.1875 83.5 67.25 84.3125 C67.25 84.9725 67.25 85.6325 67.25 86.3125 C63.92903457 87.67832503 60.59239397 89.00009107 57.25 90.3125 C56.54359375 90.60898438 55.8371875 90.90546875 55.109375 91.2109375 C48.04865861 93.93281672 40.73438364 94.02653541 33.25 94.3125 C33.27320312 95.00214844 33.29640625 95.69179687 33.3203125 96.40234375 C33.33835937 97.34207031 33.35640625 98.28179687 33.375 99.25 C33.39820312 100.16652344 33.42140625 101.08304687 33.4453125 102.02734375 C33.28624228 104.7029049 32.93179035 106.73047148 32.27294922 109.28610229 C31.00902291 114.85401042 30.83329852 120.3281007 30.6875 126.02001953 C30.65140625 127.15791428 30.6153125 128.29580902 30.578125 129.46818542 C30.50124868 131.92664329 30.42830067 134.38522652 30.35888672 136.8439064 C30.24853291 140.74720471 30.1275547 144.65004961 30.00390625 148.552948 C29.76462578 156.144724 29.53749265 163.73683713 29.3125 171.32904816 C29.00716218 181.62968945 28.69598813 191.9301002 28.37060547 202.23012924 C28.25245355 206.05341771 28.14356369 209.87689467 28.03515625 213.70046997 C27.68293358 225.34960114 27.23958499 236.81187177 25.25 248.3125 C24.59 247.9825 23.93 247.6525 23.25 247.3125 C22.43422653 228.80174505 22.12297302 210.30001574 21.96875 191.7734375 C21.95920288 190.64166328 21.94965576 189.50988907 21.93981934 188.34381866 C21.86147863 178.91224301 21.79149457 169.48060862 21.72393799 160.0489502 C21.67299537 152.94951991 21.61832011 145.85014009 21.55812073 138.75078201 C21.53167463 135.45141347 21.51082014 132.1520394 21.4901123 128.85263062 C21.47352395 126.84755204 21.45665343 124.84247577 21.43945312 122.83740234 C21.43526871 121.92643799 21.43108429 121.01547363 21.42677307 120.0769043 C21.41842941 119.23968842 21.41008575 118.40247253 21.40148926 117.53988647 C21.39375866 116.45346642 21.39375866 116.45346642 21.38587189 115.3450985 C21.24433712 113.22778512 20.76549023 111.36658347 20.25 109.3125 C20.18073032 106.55279592 20.1558264 103.82053958 20.1875 101.0625 C20.19201172 100.31742187 20.19652344 99.57234375 20.20117188 98.8046875 C20.21290754 96.9739236 20.2308415 95.14320127 20.25 93.3125 C19.18523437 93.34730469 18.12046875 93.38210937 17.0234375 93.41796875 C7.34332476 93.63667133 -1.33840179 92.84325193 -10.75 90.3125 C-11.67683594 90.08433594 -12.60367188 89.85617188 -13.55859375 89.62109375 C-20.46807322 87.78066923 -26.97337737 84.80488566 -31.75 79.3125 C-31.75 78.6525 -31.75 77.9925 -31.75 77.3125 C-32.41 77.3125 -33.07 77.3125 -33.75 77.3125 C-36.8795844 70.46022448 -37.09470706 63.11725642 -34.58203125 56.0078125 C-30.16693122 46.90521552 -24.99353738 41.0781175 -16.75 35.3125 C-16.18667969 34.89484375 -15.62335938 34.4771875 -15.04296875 34.046875 C-11.89030276 31.78014806 -10.79728006 31.3125 -6.75 31.3125 C-6.75 30.6525 -6.75 29.9925 -6.75 29.3125 C-4.59765625 27.875 -4.59765625 27.875 -1.8125 26.3125 C1.87387208 24.45172105 1.87387208 24.45172105 4.25 21.3125 C4.75964076 15.19681092 4.35001398 12.16777971 0.25 7.3125 C-5.57347391 1.62137777 -11.1185519 -0.78691558 -19.1875 -1.125 C-30.34542529 -0.71060663 -37.24534136 5.62824269 -44.75 13.3125 C-47.285379 17.1155685 -47.34712134 19.85274996 -46.75 24.3125 C-44.82207085 27.35659865 -42.0871304 28.17567536 -38.75 29.3125 C-36.32007865 29.59585716 -33.8800498 29.80053459 -31.4375 29.9375 C-30.18324219 30.01226562 -28.92898437 30.08703125 -27.63671875 30.1640625 C-26.68410156 30.21304688 -25.73148438 30.26203125 -24.75 30.3125 C-25.08 31.6325 -25.41 32.9525 -25.75 34.3125 C-41.94693242 35.14193039 -41.94693242 35.14193039 -48.75 30.3125 C-51.54849063 27.24098589 -52.55457222 25.14306805 -53.5 21.125 C-51.64315327 11.68602911 -43.29846839 3.83418514 -35.75 -1.6875 C-24.48248456 -9.03950176 -10.95420727 -6.6121613 0 0 Z " fill="#161616" transform="translate(90.75,10.6875)" data-index="0" style="opacity: 1; visibility: visible; fill: rgb(4, 255, 0);"></path>
<path d="M0 0 C0.89102417 -0.00637985 1.78204834 -0.0127597 2.70007324 -0.01933289 C3.65949829 -0.02044571 4.61892334 -0.02155853 5.60742188 -0.02270508 C6.59488403 -0.02603348 7.58234619 -0.02936188 8.59973145 -0.03279114 C10.6877394 -0.03785421 12.77575544 -0.04019965 14.86376953 -0.04003906 C18.06361137 -0.04222774 21.2631097 -0.06039607 24.46289062 -0.0793457 C26.49023319 -0.08227927 28.5175774 -0.08426431 30.54492188 -0.08520508 C31.50434692 -0.09239059 32.46377197 -0.09957611 33.45227051 -0.10697937 C34.34329468 -0.10390274 35.23431885 -0.10082611 36.15234375 -0.09765625 C36.93605347 -0.09908127 37.71976318 -0.10050629 38.52722168 -0.10197449 C40.57617188 0.14526367 40.57617188 0.14526367 43.57617188 2.14526367 C43.95117188 4.64526367 43.95117188 4.64526367 43.57617188 7.14526367 C39.88324895 9.60721229 38.03795717 9.3900769 33.63476562 9.37573242 C32.95245377 9.3752742 32.27014191 9.37481598 31.56715393 9.37434387 C30.12051662 9.37132354 28.6738825 9.36344371 27.22729492 9.35107422 C25.04593964 9.33303058 22.86501526 9.3305633 20.68359375 9.33081055 C13.26995634 9.31139895 5.93744454 9.11552697 -1.42382812 8.14526367 C-1.41335449 8.78906982 -1.40288086 9.43287598 -1.39208984 10.09619141 C-1.23104958 22.1320339 -2.87800958 33.4248915 -5.42382812 45.14526367 C-4.43382812 44.65026367 -4.43382812 44.65026367 -3.42382812 44.14526367 C1.08943753 43.93276125 5.60655262 43.95946887 10.12426758 43.95996094 C12.36949842 43.95778228 14.61423163 43.9396454 16.859375 43.9206543 C18.29231603 43.91771866 19.72525939 43.915735 21.15820312 43.91479492 C22.45991455 43.91068604 23.76162598 43.90657715 25.1027832 43.90234375 C28.39679272 44.13271835 30.62700767 44.71788375 33.57617188 46.14526367 C33.57617188 48.12526367 33.57617188 50.10526367 33.57617188 52.14526367 C19.71617187 52.14526367 5.85617187 52.14526367 -8.42382812 52.14526367 C-8.42382812 55.11526367 -8.42382812 58.08526367 -8.42382812 61.14526367 C-8.5986511 63.19245927 -8.81290413 65.23696818 -9.08007812 67.27416992 C-9.21542969 68.32797852 -9.35078125 69.38178711 -9.49023438 70.4675293 C-9.63332031 71.53680664 -9.77640625 72.60608398 -9.92382812 73.70776367 C-10.06691406 74.8118457 -10.21 75.91592773 -10.35742188 77.0534668 C-10.70780803 79.75144017 -11.06338081 82.44861927 -11.42382812 85.14526367 C-10.28840576 85.14002686 -9.1529834 85.13479004 -7.9831543 85.12939453 C-3.77320137 85.11130329 0.43674812 85.09981653 4.64672852 85.09033203 C6.46932554 85.08530127 8.29191852 85.07847598 10.11450195 85.06982422 C12.73324581 85.05770371 15.35193635 85.05202281 17.97070312 85.04760742 C19.19428276 85.03986549 19.19428276 85.03986549 20.44258118 85.03196716 C23.74631116 85.03163907 26.41940326 85.09300747 29.57617188 86.14526367 C29.76367188 89.02026367 29.76367188 89.02026367 29.57617188 92.14526367 C21.84504005 97.29935156 9.4134911 95.1878795 0.38476562 94.90332031 C-1.94710329 94.83205232 -4.27897805 94.77823895 -6.61132812 94.7253418 C-8.1009417 94.68276741 -9.5905269 94.63918511 -11.08007812 94.59448242 C-11.77379517 94.57979416 -12.46751221 94.5651059 -13.18225098 94.54997253 C-16.78463556 94.4209664 -18.34192749 94.1998641 -21.42382812 92.14526367 C-21.58360291 89.02810669 -21.58360291 89.02810669 -21.26342773 85.0480957 C-21.20701835 84.33444918 -21.15060896 83.62080265 -21.0924902 82.88553047 C-20.42668545 75.10192875 -19.2463669 67.40622357 -17.99023438 59.69995117 C-17.74931729 58.19027779 -17.50892622 56.68052039 -17.26902771 55.17068481 C-16.77029439 52.0422839 -16.26645776 48.91476516 -15.75854492 45.7878418 C-15.10988041 41.79277002 -14.47264928 37.7959746 -13.83894444 33.79850578 C-13.34610052 30.69572614 -12.84818288 27.59377777 -12.34864616 24.49206924 C-12.11168462 23.01797226 -11.87607195 21.54365774 -11.64187813 20.0691185 C-11.31452364 18.01406275 -10.98055106 15.96018852 -10.64477539 13.90649414 C-10.36284081 12.16020218 -10.36284081 12.16020218 -10.07521057 10.37863159 C-9.42363828 7.1443213 -8.70486465 4.18869952 -7.42382812 1.14526367 C-4.6213138 0.21109223 -2.89923772 0.01410128 0 0 Z " fill="#080808" transform="translate(420.423828125,164.854736328125)" data-index="1" style="opacity: 1; visibility: visible; fill: rgb(4, 255, 0);"></path>
<path d="M0 0 C1.4540625 0.0309375 1.4540625 0.0309375 2.9375 0.0625 C3.26937693 9.4625665 2.2499302 18.48843258 0.85546875 27.7578125 C0.63791613 29.24120348 0.42091145 30.72467492 0.204422 32.20822144 C-0.24824139 35.29672606 -0.70693144 38.38425513 -1.17016602 41.47119141 C-1.75942832 45.40076118 -2.33421895 49.33228446 -2.90459156 53.26463509 C-3.34948402 56.32146435 -3.8016817 59.37717929 -4.2560482 62.43261337 C-4.47063887 63.88097765 -4.68312909 65.32965494 -4.8933506 66.77865982 C-6.0526689 74.73703414 -7.42566317 82.43969201 -10.0625 90.0625 C-12.0425 90.0625 -14.0225 90.0625 -16.0625 90.0625 C-16.5575 85.1125 -16.5575 85.1125 -17.0625 80.0625 C-17.88041016 80.98482422 -17.88041016 80.98482422 -18.71484375 81.92578125 C-27.84119122 91.70735367 -27.84119122 91.70735367 -35.0625 92.0625 C-38.17459741 91.22667955 -39.46183912 90.18548847 -42.0625 88.0625 C-45.31999126 81.73272602 -45.09941756 73.97499306 -43.3046875 67.203125 C-40.10803184 58.89685439 -35.00796889 50.09738221 -26.8203125 45.91796875 C-22.28034562 44.24414258 -18.8065529 43.62825145 -14.0625 45.0625 C-12.72105008 45.71268023 -11.38609983 46.3767116 -10.0625 47.0625 C-10.12050781 45.32033203 -10.12050781 45.32033203 -10.1796875 43.54296875 C-10.17717699 37.12986227 -9.30356256 30.81465326 -8.46337891 24.46850586 C-8.1868423 22.37000904 -7.92296347 20.27017732 -7.66015625 18.16992188 C-7.48512923 16.8176105 -7.30937325 15.46539323 -7.1328125 14.11328125 C-6.97570801 12.90325439 -6.81860352 11.69322754 -6.65673828 10.4465332 C-4.83966456 0.09876866 -4.83966456 0.09876866 0 0 Z M-27.0625 59.0625 C-32.3257675 65.38516417 -32.3257675 65.38516417 -33.953125 73.1484375 C-33.71696864 75.12798346 -33.39564408 77.09694994 -33.0625 79.0625 C-29.06885249 78.47084852 -26.90385221 76.90385221 -24.0625 74.0625 C-20.58575317 68.68781891 -17.53817209 63.55725357 -17.0625 57.0625 C-17.7225 56.4025 -18.3825 55.7425 -19.0625 55.0625 C-23.11088568 55.0625 -24.11499202 56.3255283 -27.0625 59.0625 Z " fill="#060606" transform="translate(364.0625,165.9375)" data-index="2" style="opacity: 1;"></path>
<path d="M0 0 C1.4540625 0.0309375 1.4540625 0.0309375 2.9375 0.0625 C3.36080286 12.34220241 2.16750207 23.7495358 -0.0625 35.8125 C-0.49465135 38.21398535 -0.92261224 40.6161351 -1.34643555 43.019104 C-1.60789989 44.49484322 -1.87465821 45.96965821 -2.14770508 47.44329834 C-2.79483181 51.02842815 -3.21089433 54.41800587 -3.0625 58.0625 C-2.62679687 57.53140625 -2.19109375 57.0003125 -1.7421875 56.453125 C6.46186721 46.72190859 6.46186721 46.72190859 11.9140625 45.6875 C15.49133723 45.47313148 17.72833075 45.93972675 20.8125 47.75 C25.3374282 52.67418657 25.29455856 57.69522123 25.19921875 64.09765625 C24.88745718 68.82061139 24.28469571 73.44923998 23.5625 78.125 C23.43657471 78.94629395 23.31064941 79.76758789 23.1809082 80.61376953 C22.53751382 84.48696361 21.82619724 87.58268005 19.9375 91.0625 C17.93795254 91.10504356 15.93708364 91.10330783 13.9375 91.0625 C13.4425 90.5675 13.4425 90.5675 12.9375 90.0625 C13.18199654 78.40189595 14.79654279 66.66472284 15.9375 55.0625 C14.844375 55.536875 13.75125 56.01125 12.625 56.5 C10.40273745 57.46437809 8.24249515 58.29416828 5.9375 59.0625 C5.21177221 60.7043104 4.55763117 62.37796459 3.9375 64.0625 C2.7143066 66.24441255 1.46136018 68.40977505 0.1875 70.5625 C-3.69393537 77.20901295 -6.96961376 84.00978214 -10.0625 91.0625 C-12.3725 91.0625 -14.6825 91.0625 -17.0625 91.0625 C-17.68812716 80.13070811 -15.77523935 69.72183711 -13.9375 59 C-13.61953444 57.10510542 -13.30232369 55.21008403 -12.98583984 53.31494141 C-12.33953981 49.45649957 -11.68710043 45.59917282 -11.02929688 41.74267578 C-10.25093882 37.17881745 -9.48391149 32.61317671 -8.72250366 28.04646301 C-8.17705747 24.77814645 -7.62743794 21.51054442 -7.07623291 18.24319458 C-6.81763839 16.70939084 -6.55994394 15.17543507 -6.30316162 13.6413269 C-5.94843307 11.52838486 -5.5883712 9.41642704 -5.2265625 7.3046875 C-5.02498535 6.1172998 -4.8234082 4.92991211 -4.61572266 3.70654297 C-3.8566575 0.0787073 -3.8566575 0.0787073 0 0 Z " fill="#090909" transform="translate(155.0625,165.9375)" data-index="3" style="opacity: 1;"></path>
<path d="M0 0 C0.33 -0.33 0.66 -0.66 1 -1 C3.33297433 -1.04092937 5.66705225 -1.04241723 8 -1 C7.7088397 9.45265491 6.59330247 19.66341471 5 30 C4.82178711 31.1638623 4.64357422 32.32772461 4.45996094 33.52685547 C3.13391279 41.86608721 3.13391279 41.86608721 2 43 C0.02 43 -1.96 43 -4 43 C-4.33 38.05 -4.66 33.1 -5 28 C-6.5159375 30.041875 -6.5159375 30.041875 -8.0625 32.125 C-16.76809175 43.34318123 -16.76809175 43.34318123 -22.98828125 44.30859375 C-27.50987765 44.55937137 -29.36944759 44.51232383 -33 41.5625 C-36.47868451 36.43475051 -36.4562054 30.55683664 -35.4375 24.625 C-32.97450199 15.27865657 -27.667435 6.90247827 -20 1 C-14.04973197 -2.42661349 -6.04771003 -4.03180669 0 0 Z M-18 13 C-18.721875 13.825 -19.44375 14.65 -20.1875 15.5 C-23.98264898 20.73468825 -24.21326089 24.70880373 -24 31 C-18.82409504 30.4027802 -15.43109606 26.77309813 -12.31640625 22.9140625 C-9.02099814 18.2831053 -7.11925739 14.72435461 -7 9 C-8.03632739 7.76992655 -8.03632739 7.76992655 -10.25 7.625 C-14.18344966 8.1613795 -15.44022886 10.04641791 -18 13 Z " fill="#060606" transform="translate(306,214)" data-index="4" style="opacity: 1;"></path>
<path d="M0 0 C3.07365786 1.80803404 4.43019732 2.86039464 6 6 C6.34843149 11.24824936 5.37994637 15.12686999 2 19.1875 C-4.01104604 25.3583489 -10.79977424 29.45510235 -19 32 C-19.99 32 -20.98 32 -22 32 C-22 33.32 -22 34.64 -22 36 C-14.72810387 36.44295814 -9.42077428 36.19587849 -2.9140625 32.82421875 C-0.3366904 31.71437077 1.41663522 31.99998783 4 33 C4.375 35.1875 4.375 35.1875 4 38 C-1.30745215 43.7157177 -7.95022476 46.07540853 -15.6875 46.375 C-21.39834149 46.13663444 -24.74959668 44.27882157 -28.75 40.1875 C-32.55602515 34.79563104 -33.9211582 29.57636996 -33 23 C-30.81448494 14.78141643 -26.69483502 8.34415458 -19.74609375 3.39453125 C-13.39798618 -0.24314837 -7.22863491 -1.18344908 0 0 Z M-14.75 13.25 C-15.36359375 13.66765625 -15.9771875 14.0853125 -16.609375 14.515625 C-18.45579037 16.14751572 -18.45579037 16.14751572 -18 20 C-12.95030484 19.55443866 -10.52381313 17.44186399 -7 14 C-7 13.01 -7 12.02 -7 11 C-10.99472749 11 -11.71310846 11.09562395 -14.75 13.25 Z " fill="#060606" transform="translate(571,211)" data-index="5" style="opacity: 1;"></path>
<path d="M0 0 C2.5 1.625 2.5 1.625 3.5 3.625 C4.46058524 8.33730495 4.40533242 12.09976017 1.9140625 16.296875 C-5.01234292 24.54854933 -14.07450036 29.25556826 -24.5 31.625 C-22.75029407 33.86073536 -21.54248641 34.61116721 -18.8125 35.5 C-14.53192141 35.66153127 -11.3258907 34.46946282 -7.5 32.625 C-7.17 32.295 -6.84 31.965 -6.5 31.625 C-3.82941149 31.48384839 -1.17567762 31.58252893 1.5 31.625 C1.8125 34.375 1.8125 34.375 1.5 37.625 C-2.82155734 42.66681689 -9.52761953 43.95295573 -15.83203125 45.01953125 C-21.42093309 45.44041177 -25.15618973 43.78233123 -29.61328125 40.453125 C-33.89875813 36.30073747 -34.62925633 31.53410184 -34.9375 25.75 C-34.64357977 18.08456045 -32.04815664 11.90486758 -26.875 6.25 C-19.36706986 -0.63110852 -9.69943837 -3.81049365 0 0 Z M-18.5 13.625 C-19.45231597 15.74619128 -19.45231597 15.74619128 -19.5 17.625 C-15.11999924 17.12442848 -12.65830185 15.69306466 -9.5 12.625 C-9.5 11.635 -9.5 10.645 -9.5 9.625 C-13.57746885 9.625 -15.33198065 11.14568051 -18.5 13.625 Z " fill="#050505" transform="translate(261.5,212.375)" data-index="6" style="opacity: 1;"></path>
<path d="M0 0 C0.58121271 9.83352712 -1.20066168 19.07794651 -3 28.6875 C-3.28994591 30.27522955 -3.57901505 31.86311948 -3.8671875 33.45117188 C-4.56803977 37.30270306 -5.28068861 41.15187539 -6 45 C-4.09734375 44.98453125 -4.09734375 44.98453125 -2.15625 44.96875 C0.73339185 44.94525698 3.23119717 45.07706572 6 46 C6 48.31 6 50.62 6 53 C3.03650719 53.98783094 1.0287337 54.13410525 -2.0625 54.125 C-3.37927734 54.12886719 -3.37927734 54.12886719 -4.72265625 54.1328125 C-7 54 -7 54 -9 53 C-9.02578125 53.75539062 -9.0515625 54.51078125 -9.078125 55.2890625 C-9.48737976 63.23232528 -10.54159709 70.92452235 -11.9375 78.75 C-12.10733398 79.72662598 -12.27716797 80.70325195 -12.45214844 81.70947266 C-12.62133789 82.62519043 -12.79052734 83.5409082 -12.96484375 84.484375 C-13.1155835 85.30647461 -13.26632324 86.12857422 -13.42163086 86.97558594 C-14 89 -14 89 -16 91 C-18.5625 91.1875 -18.5625 91.1875 -21 91 C-22.64076126 89.35923874 -22.19091013 87.52391328 -22.21875 85.26171875 C-22.15828309 78.58768393 -20.90953525 72.3154099 -19.5 65.8125 C-19.26152344 64.66974609 -19.02304687 63.52699219 -18.77734375 62.34960938 C-18.1946213 59.56419608 -17.60205183 56.78128733 -17 54 C-17.68707031 54.02320313 -18.37414062 54.04640625 -19.08203125 54.0703125 C-19.98308594 54.08835938 -20.88414062 54.10640625 -21.8125 54.125 C-22.70582031 54.14820313 -23.59914063 54.17140625 -24.51953125 54.1953125 C-27 54 -27 54 -30 52 C-30.1875 48.875 -30.1875 48.875 -30 46 C-26.85069107 44.95023036 -24.61185544 44.89868405 -21.3125 44.9375 C-20.31863281 44.94652344 -19.32476563 44.95554688 -18.30078125 44.96484375 C-17.16189453 44.98224609 -17.16189453 44.98224609 -16 45 C-15.90865784 44.45320587 -15.81731567 43.90641174 -15.72320557 43.3430481 C-14.77061237 37.66193691 -13.79343754 31.9854512 -12.80175781 26.31103516 C-12.43472821 24.19168278 -12.07401986 22.07122571 -11.71972656 19.94970703 C-11.20988241 16.90345943 -10.67756738 13.86188504 -10.140625 10.8203125 C-9.98627991 9.86818878 -9.83193481 8.91606506 -9.6729126 7.93508911 C-9.51304871 7.05432709 -9.35318481 6.17356506 -9.18847656 5.26611328 C-8.98862152 4.10029221 -8.98862152 4.10029221 -8.784729 2.91091919 C-8 1 -8 1 -6.06634521 -0.29006958 C-3.61940848 -1.13075913 -2.40218545 -0.85792337 0 0 Z " fill="#090909" transform="translate(533,165)" data-index="7" style="opacity: 1;"></path>
<path d="M0 0 C2.00720923 0.28674418 4.0085944 0.61866701 6 1 C6.48573777 11.39324618 4.99073517 21.27703862 3.375 31.5 C3.10405175 33.2507457 2.83355085 35.00156068 2.56347656 36.75244141 C1.8634991 41.26726518 1.14972453 45.77978644 0.43078613 50.29162598 C0.0039941 52.9748889 -0.41885637 55.65874745 -0.84082031 58.34277344 C-1.50519878 62.56031991 -2.17996454 66.77606854 -2.86395264 70.99047852 C-3.12057123 72.57554968 -3.37485793 74.1610002 -3.62677002 75.74682617 C-3.9773826 77.94462662 -4.33862228 80.14040399 -4.703125 82.3359375 C-4.90583008 83.57907715 -5.10853516 84.8222168 -5.31738281 86.10302734 C-6 89 -6 89 -8 91 C-10.5625 91.1875 -10.5625 91.1875 -13 91 C-14.78119672 89.21880328 -14.17834275 86.67532939 -14.1953125 84.265625 C-14.13618611 77.25056512 -13.1495388 70.6336556 -11.875 63.75 C-11.41375658 61.1425696 -10.95577271 58.5348292 -10.50390625 55.92578125 C-10.32328896 54.88769066 -10.32328896 54.88769066 -10.13902283 53.82862854 C-9.12794928 47.93466426 -8.24982981 42.02496038 -7.40234375 36.10546875 C-7.26963074 35.17987152 -7.13691772 34.25427429 -7.00018311 33.30062866 C-6.47131525 29.59722245 -5.94537161 25.89347104 -5.43035889 22.18811035 C-5.06936749 19.59210473 -4.70111445 16.99720923 -4.33203125 14.40234375 C-4.22696762 13.62650436 -4.12190399 12.85066498 -4.01365662 12.05131531 C-2.66685258 2.66685258 -2.66685258 2.66685258 0 0 Z " fill="#0D0D0D" transform="translate(477,166)" data-index="8" style="opacity: 1;"></path>
<path d="M0 0 C0.94875 0.04125 1.8975 0.0825 2.875 0.125 C3.205 2.435 3.535 4.745 3.875 7.125 C4.596875 6.50625 5.31875 5.8875 6.0625 5.25 C11.73279399 0.96577787 16.89723824 0.35711234 23.875 1.125 C27.5 2.625 27.5 2.625 29.875 4.125 C29.917721 5.79111905 29.91563832 7.45882885 29.875 9.125 C28.875 10.125 28.875 10.125 27.08984375 10.15234375 C26.33832031 10.12269531 25.58679688 10.09304687 24.8125 10.0625 C20.05389077 10.03980393 16.36956546 10.47699266 11.875 12.125 C7.91610739 16.23006711 5.80805916 19.9993045 3.75 25.375 C3.49702148 26.02815186 3.24404297 26.68130371 2.98339844 27.35424805 C1.24150337 31.92419404 -0.24734863 36.5355265 -1.484375 41.26953125 C-2.125 43.125 -2.125 43.125 -4.125 45.125 C-6.6875 45.3125 -6.6875 45.3125 -9.125 45.125 C-10.125 44.125 -10.125 44.125 -10.14453125 40.6796875 C-9.78862666 31.19062773 -8.79381708 21.92322248 -7.1875 12.5625 C-7.01774658 11.55751465 -6.84799316 10.5525293 -6.6730957 9.51708984 C-4.98635154 0.19945406 -4.98635154 0.19945406 0 0 Z " fill="#080808" transform="translate(197.125,210.875)" data-index="9" style="opacity: 1;"></path><path d="M0 0 C4.875 0.875 4.875 0.875 6 2 C6.04063832 3.66617115 6.042721 5.33388095 6 7 C5.34 7 4.68 7 4 7 C4.0721875 7.66644531 4.144375 8.33289063 4.21875 9.01953125 C4.89198264 15.70510535 5.11693011 22.2830148 5 29 C2.69 29 0.38 29 -2 29 C-2.33 24.71 -2.66 20.42 -3 16 C-3.66 17.32 -4.32 18.64 -5 20 C-5.56404293 12.38542051 -3.3779142 6.7558284 0 0 Z " fill="#3C3C3C" transform="translate(116,72)" data-index="10"></path>
<path d="M0 0 C1.4540625 0.0309375 1.4540625 0.0309375 2.9375 0.0625 C3.28714886 8.77305054 2.41341683 16.98759954 0.91113281 25.56542969 C0.55840315 27.58596792 0.22355845 29.60892755 -0.109375 31.6328125 C-1.9419811 42.39128831 -1.9419811 42.39128831 -4.0625 46.0625 C-6.0425 46.0625 -8.0225 46.0625 -10.0625 46.0625 C-10.32021115 36.8688933 -9.61442619 28.14017938 -8.1875 19.0625 C-8.01347656 17.87527344 -7.83945312 16.68804687 -7.66015625 15.46484375 C-5.32296505 0.10863194 -5.32296505 0.10863194 0 0 Z " fill="#0A0A0A" transform="translate(492.0625,211.9375)" data-index="11" style="opacity: 1;"></path>
<path d="M0 0 C0.33 0 0.66 0 1 0 C1.19441368 2.2910905 1.38033135 4.58290337 1.5625 6.875 C1.66691406 8.15117188 1.77132812 9.42734375 1.87890625 10.7421875 C2 14 2 14 1 16 C1.33 16.66 1.66 17.32 2 18 C2.24159942 20.89325638 2.42345532 23.76428947 2.55639648 26.66308594 C2.59857772 27.55263851 2.64075895 28.44219109 2.68421841 29.3586998 C3.14641496 40.03465798 3.12524294 50.70685512 3.09765625 61.390625 C3.09578509 63.55922411 3.0943645 65.72782365 3.09336853 67.89642334 C3.08959822 73.53175071 3.07981663 79.16705122 3.06866455 84.80236816 C3.05833065 90.58178342 3.05384557 96.36120312 3.04882812 102.140625 C3.03818792 113.42709496 3.02117975 124.71354523 3 136 C2.67 136 2.34 136 2 136 C1.98969254 134.79810028 1.97938507 133.59620056 1.96876526 132.35787964 C1.87098716 121.02826687 1.76824889 109.69870848 1.66066074 98.36918449 C1.60550863 92.54464454 1.552101 86.72009949 1.50268555 80.89550781 C1.45492821 75.27393417 1.4025814 69.65242025 1.34705925 64.03091812 C1.32668717 61.8867555 1.30796573 59.74257655 1.29092598 57.59838486 C1.26676785 54.59401296 1.23672909 51.58975287 1.20532227 48.58544922 C1.19668907 47.25727425 1.19668907 47.25727425 1.18788147 45.90226746 C1.13543583 41.48526043 0.8171999 37.35534911 0 33 C-0.06578002 30.54245859 -0.08569162 28.08331222 -0.0625 25.625 C-0.05347656 24.37976563 -0.04445313 23.13453125 -0.03515625 21.8515625 C-0.02355469 20.91054687 -0.01195313 19.96953125 0 19 C-0.75023438 19.01160156 -1.50046875 19.02320312 -2.2734375 19.03515625 C-8.92337417 19.0937829 -15.40004873 18.81769308 -22 18 C-22 17.67 -22 17.34 -22 17 C-19.36 17 -16.72 17 -14 17 C-13.67 16.01 -13.34 15.02 -13 14 C-12.67 13.34 -12.34 12.68 -12 12 C-8.04 12.33 -4.08 12.66 0 13 C0 8.71 0 4.42 0 0 Z " fill="#050505" transform="translate(110,86)" data-index="12" style="opacity: 1; visibility: visible; fill: rgb(4, 255, 0);"></path>
<path d="M0 0 C0.66 0.33 1.32 0.66 2 1 C1.505 2.134375 1.01 3.26875 0.5 4.4375 C-2.05544494 11.26005582 -1.19875525 17.95731293 0 25 C0.73347656 25.27972656 1.46695313 25.55945313 2.22265625 25.84765625 C4.75585825 26.89870349 7.04453504 28.1062318 9.4375 29.4375 C14.71615054 32.1242383 19.97940265 33.26369942 25.76953125 34.375 C29.26736538 35.05172728 32.60054902 35.94778898 36 37 C34.859375 38.96484375 34.859375 38.96484375 33 41 C22.47075669 43.28553934 10.62013016 39.24066529 1.55859375 34.015625 C0.71425781 33.35046875 -0.13007812 32.6853125 -1 32 C-1 31.01 -1 30.02 -1 29 C-0.236875 29.66 0.52625 30.32 1.3125 31 C3.84277939 33.29850538 3.84277939 33.29850538 7 33 C7 32.34 7 31.68 7 31 C5.26196586 29.89170553 5.26196586 29.89170553 3.125 28.8125 C0.06500741 26.94190383 -0.87385794 26.25754004 -2.5 22.9375 C-3.5472634 14.69030071 -4.06155725 7.4461883 0 0 Z " fill="#0A0A0A" transform="translate(63,62)" data-index="13" style="visibility: visible; opacity: 1; fill: rgb(4, 255, 0);"></path>
<path d="M0 0 C-0.33 1.65 -0.66 3.3 -1 5 C-2.98 5.33 -4.96 5.66 -7 6 C-7 6.99 -7 7.98 -7 9 C-13.83923859 12.19164467 -19.38445882 14.73226358 -27 14 C-27 12.35 -27 10.7 -27 9 C-25.97519531 8.60167969 -24.95039063 8.20335938 -23.89453125 7.79296875 C-22.53376242 7.25804583 -21.17309043 6.72287651 -19.8125 6.1875 C-19.13896484 5.92646484 -18.46542969 5.66542969 -17.77148438 5.39648438 C-14.74814241 4.2018956 -12.03116691 3.01912515 -9.25 1.3125 C-6.12918436 -0.50797579 -3.54015118 -0.20824419 0 0 Z " fill="#0B0B0B" transform="translate(165,89)" data-index="14" style="visibility: visible; opacity: 1; fill: rgb(4, 255, 0);"></path>
<path d="M0 0 C10.85074427 -0.55697737 20.32929866 1.08562409 29 8 C31.25802837 10.14915069 33.45711343 12.27574004 35 15 C34.67 15.99 34.34 16.98 34 18 C32.68 17.67 31.36 17.34 30 17 C30.16757813 17.62648438 30.33515625 18.25296875 30.5078125 18.8984375 C30.71148437 19.71570313 30.91515625 20.53296875 31.125 21.375 C31.33382812 22.18710937 31.54265625 22.99921875 31.7578125 23.8359375 C31.83773437 24.55007812 31.91765625 25.26421875 32 26 C31.34 26.66 30.68 27.32 30 28 C29.90525391 27.1646875 29.90525391 27.1646875 29.80859375 26.3125 C28.73682669 19.63369894 26.28230603 15.2779239 21 11 C17.43659394 9.026716 13.81019636 7.43312992 10 6 C12 5 12 5 15.125 5.9375 C16.07375 6.288125 17.0225 6.63875 18 7 C17.67 5.68 17.34 4.36 17 3 C11.39 2.34 5.78 1.68 0 1 C0 0.67 0 0.34 0 0 Z " fill="#0E0E0E" transform="translate(65,4)" data-index="15" style="visibility: visible; opacity: 1; fill: rgb(4, 255, 0); stroke: rgb(4, 255, 0);"></path>
<path d="M0 0 C0.66 0.33 1.32 0.66 2 1 C2 1.66 2 2.32 2 3 C0.34997172 4.35386936 -1.3174387 5.68678142 -3 7 C-3.33 7.66 -3.66 8.32 -4 9 C-4.66 9 -5.32 9 -6 9 C-7.07525194 11.65228812 -8.09456151 14.28368454 -9 17 C-8.01 17 -7.02 17 -6 17 C-6.52268466 19.76276177 -7.10869587 22.3260876 -8 25 C-7.34 25 -6.68 25 -6 25 C-3.5 27.5 -3.5 27.5 -1 30 C2.61867559 31.2062252 5.92506251 31.10816918 9.6875 31.0625 C10.38939453 31.05798828 11.09128906 31.05347656 11.81445312 31.04882812 C13.54300538 31.03706927 15.27151365 31.01913454 17 31 C17 30.34 17 29.68 17 29 C16.04738281 28.95101562 15.09476563 28.90203125 14.11328125 28.8515625 C12.85902344 28.77679688 11.60476562 28.70203125 10.3125 28.625 C9.07113281 28.55539063 7.82976563 28.48578125 6.55078125 28.4140625 C2.39592551 27.92955787 -0.67412227 27.18871796 -3.8125 24.375 C-5.64350721 20.71298558 -5.38880507 18.08245328 -5 14 C-3.5 12 -3.5 12 -2 11 C-2.226875 12.216875 -2.45375 13.43375 -2.6875 14.6875 C-3.07043138 17.7783033 -3.04046858 18.90202344 -1.8125 21.875 C1.00340903 25.17641059 3.12792909 25.89543041 7.453125 26.4140625 C8.70609375 26.48367187 9.9590625 26.55328125 11.25 26.625 C12.51328125 26.69976562 13.7765625 26.77453125 15.078125 26.8515625 C16.04234375 26.90054688 17.0065625 26.94953125 18 27 C18.042721 28.66611905 18.04063832 30.33382885 18 32 C15.76442715 34.23557285 10.26371506 33.30985851 7.15722656 33.3190918 C1.45282564 33.22010141 -1.66025292 32.64933277 -6 29 C-9.48019394 25.15346986 -11 23.24361877 -11 18 C-10.13096237 10.7423614 -5.16680399 4.91321852 0 0 Z " fill="#080808" transform="translate(48,13)" data-index="16" style="opacity: 1; visibility: visible; fill: rgb(4, 255, 0); stroke: rgb(4, 255, 0);"></path>
<path d="M0 0 C0.99 0.33 1.98 0.66 3 1 C3.34057669 10.81996112 2.28846906 20.29046527 1 30 C-0.32 29.67 -1.64 29.34 -3 29 C-3 22.73 -3 16.46 -3 10 C-2.01 9.67 -1.02 9.34 0 9 C0 6.03 0 3.06 0 0 Z " fill="#484948" transform="translate(116,229)" data-index="17" style="opacity: 1; visibility: visible; fill: rgb(4, 255, 0);"></path>
<path d="M0 0 C-2.1385485 2.1385485 -3.13275314 2.42655063 -6 3 C-6 3.66 -6 4.32 -6 5 C-1.94718288 3.77472971 1.44360764 2.30119506 5 0 C5.33 0.66 5.66 1.32 6 2 C5.01 2.58007812 4.02 3.16015625 3 3.7578125 C-3.94863072 7.85946533 -10.67356122 11.96467118 -17 17 C-15.66666667 14.33333333 -14.33333333 11.66666667 -13 9 C-14.32 8.67 -15.64 8.34 -17 8 C-6.5304878 -0.62195122 -6.5304878 -0.62195122 0 0 Z " fill="#0F0F0F" transform="translate(84,42)" data-index="18" style="visibility: visible; opacity: 1; fill: rgb(4, 255, 0); stroke: rgb(4, 255, 0);"></path>
<path d="M0 0 C2.45872866 0.49343268 4.6299556 1.15731755 7 2 C7.33 3.32 7.66 4.64 8 6 C7.43152344 5.9278125 6.86304687 5.855625 6.27734375 5.78125 C-1.65223445 4.82811205 -8.28568329 4.83457777 -16 7 C-12.45037787 -0.91838783 -8.11907244 -0.68882256 0 0 Z " fill="#1C1C1C" transform="translate(75,5)" data-index="19" style="visibility: visible; opacity: 1; fill: rgb(4, 255, 0); stroke: rgb(4, 255, 0);"></path>
<path d="M0 0 C6.93302093 -0.22731216 13.2168636 0.57997892 20 2 C20.33 3.32 20.66 4.64 21 6 C7.3667426 6.3690205 7.3667426 6.3690205 1 4 C0.67 2.68 0.34 1.36 0 0 Z " fill="#0F0F0F" transform="translate(75,97)" data-index="20" style="visibility: visible; opacity: 1; fill: rgb(4, 255, 0);"></path>
<path d="M0 0 C-0.57344937 2.86724686 -0.8614515 3.8614515 -3 6 C-3.70710678 7.64991582 -4.37943989 9.31562256 -5 11 C-5.99 11 -6.98 11 -8 11 C-8.33 11.66 -8.66 12.32 -9 13 C-9.99 13 -10.98 13 -12 13 C-12.99 13.495 -12.99 13.495 -14 14 C-12.40858815 6.92705846 -7.93336654 -0.79197119 0 0 Z " fill="#161616" transform="translate(71,51)" data-index="21" style="visibility: visible; opacity: 1; fill: rgb(4, 255, 0); stroke: rgb(4, 255, 0);"></path>
<path d="M0 0 C2.875 0.6875 2.875 0.6875 3.875 1.6875 C4.0625 4.125 4.0625 4.125 3.875 6.6875 C1.875 8.6875 1.875 8.6875 -1.125 8.9375 C-4.125 8.6875 -4.125 8.6875 -6.125 6.6875 C-6.4375 4.1875 -6.4375 4.1875 -6.125 1.6875 C-3.125 -0.3125 -3.125 -0.3125 0 0 Z " fill="#090909" transform="translate(496.125,186.3125)" data-index="22"></path>
<path d="M0 0 C0.66 0.33 1.32 0.66 2 1 C2 1.66 2 2.32 2 3 C0.34997172 4.35386936 -1.3174387 5.68678142 -3 7 C-3.33 7.66 -3.66 8.32 -4 9 C-4.66 9 -5.32 9 -6 9 C-7.07525194 11.65228812 -8.09456151 14.28368454 -9 17 C-8.01 17 -7.02 17 -6 17 C-6.52268466 19.76276177 -7.10869587 22.3260876 -8 25 C-7.34 25 -6.68 25 -6 25 C-5.67 26.32 -5.34 27.64 -5 29 C-9.875 24.25 -9.875 24.25 -11 22 C-11 13.18395729 -7.32395933 7.48048275 -1.2734375 1.2109375 C-0.85320313 0.81132812 -0.43296875 0.41171875 0 0 Z " fill="#141414" transform="translate(48,13)" data-index="23" style="opacity: 1; visibility: visible; fill: rgb(4, 255, 0); stroke: rgb(4, 255, 0);"></path>
<path d="M0 0 C0 0.99 0 1.98 0 3 C0.99 3.33 1.98 3.66 3 4 C-2.36439644 6.68219822 -6.01006953 7.3152595 -12 7 C-12 5.35 -12 3.7 -12 2 C-7.8794254 0.00214565 -4.54805635 -0.17835515 0 0 Z " fill="#0F0F0F" transform="translate(150,96)" data-index="24" style="visibility: visible; opacity: 1; fill: rgb(4, 255, 0);"></path>
<path d="M0 0 C4.875 0.875 4.875 0.875 6 2 C6.04063832 3.66617115 6.042721 5.33388095 6 7 C5.34 7 4.68 7 4 7 C4.0721875 7.66644531 4.144375 8.33289063 4.21875 9.01953125 C4.89198264 15.70510535 5.11693011 22.2830148 5 29 C2.69 29 0.38 29 -2 29 C-2.33 24.71 -2.66 20.42 -3 16 C-3.66 17.32 -4.32 18.64 -5 20 C-5.56404293 12.38542051 -3.3779142 6.7558284 0 0 Z " fill="#3C3C3C" transform="translate(116,72)" data-index="25"></path>
<path d="M0 0 C4.875 0.875 4.875 0.875 6 2 C6.04063832 3.66617115 6.042721 5.33388095 6 7 C5.34 7 4.68 7 4 7 C4.0721875 7.66644531 4.144375 8.33289063 4.21875 9.01953125 C4.89198264 15.70510535 5.11693011 22.2830148 5 29 C2.69 29 0.38 29 -2 29 C-2.33 24.71 -2.66 20.42 -3 16 C-3.66 17.32 -4.32 18.64 -5 20 C-5.56404293 12.38542051 -3.3779142 6.7558284 0 0 Z " fill="#3C3C3C" transform="translate(116,72)" data-index="26" style="visibility: visible; opacity: 1; fill: rgb(4, 255, 0);"></path>
<path d="M0 0 C2.27076842 -0.02699725 4.54162821 -0.04639453 6.8125 -0.0625 C8.07707031 -0.07410156 9.34164062 -0.08570313 10.64453125 -0.09765625 C14 0 14 0 17 1 C17 1.66 17 2.32 17 3 C13.75684218 3.96604701 10.81491334 4.13419024 7.4375 4.125 C6.48746094 4.12757812 5.53742187 4.13015625 4.55859375 4.1328125 C2 4 2 4 -1 3 C-0.67 2.01 -0.34 1.02 0 0 Z " fill="FFFFFF" transform="translate(48,41)" data-index="27" style="visibility: visible; opacity: 1; fill: rgb(4, 255, 0); stroke: rgb(4, 255, 0);"></path>
<path d="M0 0 C1.65 0 3.3 0 5 0 C5.02717692 2.06242617 5.0464758 4.12495703 5.0625 6.1875 C5.07410156 7.33605469 5.08570312 8.48460938 5.09765625 9.66796875 C5.01192832 12.59300586 4.67849023 15.16316291 4 18 C3.01 18 2.02 18 1 18 C-0.59412284 14.81175432 -0.10174735 11.37103338 -0.0625 7.875 C-0.05798828 7.12089844 -0.05347656 6.36679688 -0.04882812 5.58984375 C-0.03703499 3.72652873 -0.01909942 1.86325445 0 0 Z " fill="#DDDDDD" transform="translate(115,105)" data-index="28" style="opacity: 1;"></path>
<path d="M0 0 C0.309375 0.639375 0.61875 1.27875 0.9375 1.9375 C1.8345163 3.93610821 1.8345163 3.93610821 3 5 C3.14115161 7.67058851 3.04247107 10.32432238 3 13 C2.01 12.67 1.02 12.34 0 12 C0.1135629 13.64666203 0.24117381 15.29236082 0.375 16.9375 C0.44460937 17.85402344 0.51421875 18.77054688 0.5859375 19.71484375 C0.72257812 20.46894531 0.85921875 21.22304687 1 22 C1.66 22.33 2.32 22.66 3 23 C2.01 23 1.02 23 0 23 C-2.8736403 16.35470681 -2.87530069 9.22767129 -1 2.3125 C-0.505 1.1678125 -0.505 1.1678125 0 0 Z " fill="#080808" transform="translate(56,65)" data-index="29" style="visibility: visible; opacity: 1; fill: rgb(4, 255, 0); stroke: rgb(4, 255, 0);"></path>
<path d="M0 0 C0.33 0 0.66 0 1 0 C2 3 3 6 4 9 C5.65 9.33 7.3 9.66 9 10 C7.68 10.99 6.36 11.98 5 13 C2.5 11.625 2.5 11.625 0 10 C0 9.34 0 8.68 0 8 C-0.66 8 -1.32 8 -2 8 C-1.47731534 5.23723823 -0.89130413 2.6739124 0 0 Z " fill="#292929" transform="translate(42,30)" data-index="30" style="visibility: visible; opacity: 1; fill: rgb(4, 255, 0); stroke: rgb(4, 255, 0);"></path>
<path d="M0 0 C0.33 0 0.66 0 1 0 C0.34191805 10.09815406 -1.35669017 20.02645293 -3 30 C-3.33 30 -3.66 30 -4 30 C-3.11283557 13.72902685 -3.11283557 13.72902685 -2.5625 7.125 C-2.50191406 6.38507813 -2.44132812 5.64515625 -2.37890625 4.8828125 C-2 3 -2 3 0 0 Z " fill="#030303" transform="translate(475,220)" data-index="31"></path>
<path d="M0 0 C3.63 0.33 7.26 0.66 11 1 C11.33 2.32 11.66 3.64 12 5 C10.20793453 4.85915204 8.41635083 4.71216299 6.625 4.5625 C5.62726563 4.48128906 4.62953125 4.40007812 3.6015625 4.31640625 C1 4 1 4 -1 3 C-0.67 2.01 -0.34 1.02 0 0 Z " fill="#222222" transform="translate(84,98)" data-index="32" style="visibility: visible; opacity: 1; fill: rgb(4, 255, 0);"></path>
<path d="M0 0 C0.33 0.66 0.66 1.32 1 2 C-2.08297927 5.25914951 -4.9161331 8.06553673 -9 10 C-9.99 9.67 -10.98 9.34 -12 9 C-11.67 8.01 -11.34 7.02 -11 6 C-9.00428677 5.32060826 -7.00405227 4.65438441 -5 4 C-4.34 3.01 -3.68 2.02 -3 1 C-2.01 0.67 -1.02 0.34 0 0 Z " fill="#1D1D1D" transform="translate(89,38)" data-index="33" style="visibility: visible; opacity: 1; fill: rgb(4, 255, 0); stroke: rgb(4, 255, 0);"></path>
<path d="M0 0 C1.65 0 3.3 0 5 0 C4.42647107 3.87132028 2.51295648 6.08172796 0 9 C-1.32 8.67 -2.64 8.34 -4 8 C-2.66666667 5.33333333 -1.33333333 2.66666667 0 0 Z " fill="#272727" transform="translate(66,51)" data-index="34" style="visibility: visible; opacity: 1; fill: rgb(4, 255, 0); stroke: rgb(4, 255, 0);"></path>
<path d="M0 0 C0.33 0 0.66 0 1 0 C0.41993763 7.75451806 -0.62440584 15.34742277 -2 23 C-2.66 23 -3.32 23 -4 23 C-4.23529355 17.23530807 -3.84517785 12.53553355 -2 7 C-1.61888209 5.68926342 -1.24373421 4.37677407 -0.875 3.0625 C-0.58625 2.051875 -0.2975 1.04125 0 0 Z " fill="#030303" transform="translate(479,196)" data-index="35"></path>
<path d="M0 0 C0.99 0.33 1.98 0.66 3 1 C3.18451025 10.41002278 3.18451025 10.41002278 2 15 C1.34 14.67 0.68 14.34 0 14 C0 9.38 0 4.76 0 0 Z " fill="#6A6C6B" transform="translate(114,241)" data-index="36" style="opacity: 1; visibility: visible; fill: rgb(4, 255, 0);"></path>
<path d="M0 0 C0.66 0.33 1.32 0.66 2 1 C1.34 1.66 0.68 2.32 0 3 C-0.49858973 5.13262341 -0.49858973 5.13262341 -0.6875 7.5 C-0.77386719 8.2940625 -0.86023438 9.088125 -0.94921875 9.90625 C-1.16514098 12.06035882 -1.16514098 12.06035882 0 14 C-0.99 14.495 -0.99 14.495 -2 15 C-2.46651207 17.12576782 -2.46651207 17.12576782 -2.625 19.5625 C-2.69976562 20.38878906 -2.77453125 21.21507812 -2.8515625 22.06640625 C-2.90054687 22.70449219 -2.94953125 23.34257812 -3 24 C-3.66 24 -4.32 24 -5 24 C-3.49269311 3.49269311 -3.49269311 3.49269311 0 0 Z " fill="#050505" transform="translate(477,166)" data-index="37"></path>
<path d="M0 0 C0.66 0.33 1.32 0.66 2 1 C2 1.66 2 2.32 2 3 C0.34997172 4.35386936 -1.3174387 5.68678142 -3 7 C-3.33 7.66 -3.66 8.32 -4 9 C-4.66 9 -5.32 9 -6 9 C-7.07525194 11.65228812 -8.09456151 14.28368454 -9 17 C-9.66 16.67 -10.32 16.34 -11 16 C-8.18077503 9.68493607 -4.74728271 5.01398398 0 0 Z " fill="#0C0C0C" transform="translate(48,13)" data-index="38" style="opacity: 1; visibility: visible; fill: rgb(4, 255, 0); stroke: rgb(4, 255, 0);"></path>
<path d="M0 0 C3.91402949 1.26941497 5.79072873 2.51167694 8 6 C6.68 6 5.36 6 4 6 C4.33 7.98 4.66 9.96 5 12 C2.69 10.02 0.38 8.04 -2 6 C-0.68 5.67 0.64 5.34 2 5 C2.33 4.01 2.66 3.02 3 2 C2.01 1.67 1.02 1.34 0 1 C0 0.67 0 0.34 0 0 Z " fill="#080808" transform="translate(88,9)" data-index="39" style="visibility: visible; opacity: 1; fill: rgb(4, 255, 0);"></path>
<path d="M0 0 C0.99 0.33 1.98 0.66 3 1 C3 4.96 3 8.92 3 13 C2.34 12.67 1.68 12.34 1 12 C0.5859375 9.27734375 0.5859375 9.27734375 0.375 5.9375 C0.30023438 4.83277344 0.22546875 3.72804687 0.1484375 2.58984375 C0.09945312 1.73519531 0.05046875 0.88054687 0 0 Z " fill="#2F2F2F" transform="translate(116,229)" data-index="40" style="visibility: visible; opacity: 1; stroke-width: 2px; stroke: rgb(4, 255, 0); fill: rgb(4, 255, 0);"></path>
<path d="M0 0 C2.875 -0.1875 2.875 -0.1875 6 0 C8.1519437 3.22791555 8.20086443 4.28400809 8 8 C6 5 6 5 6 2 C4.35 1.67 2.7 1.34 1 1 C1.33 2.65 1.66 4.3 2 6 C0.68 6 -0.64 6 -2 6 C-1.34 4.02 -0.68 2.04 0 0 Z " fill="#121212" transform="translate(115,72)" data-index="41" style="visibility: visible; opacity: 1; fill: rgb(4, 255, 0);"></path>
<path d="M0 0 C0.99 0.33 1.98 0.66 3 1 C2.34 3.97 1.68 6.94 1 10 C-0.32 8.68 -1.64 7.36 -3 6 C-2.01 4.02 -1.02 2.04 0 0 Z " fill="#262626" transform="translate(59,62)" data-index="42" style="visibility: visible; opacity: 1; fill: rgb(4, 255, 0); stroke: rgb(4, 255, 0);"></path>
<path d="M0 0 C1.1875 1.5625 1.1875 1.5625 2 4 C0.625 7.75 0.625 7.75 -1 11 C-0.34 11.33 0.32 11.66 1 12 C-0.32 12.99 -1.64 13.98 -3 15 C-2.69257097 12.68682039 -2.37892298 10.37446648 -2.0625 8.0625 C-1.88847656 6.77472656 -1.71445312 5.48695313 -1.53515625 4.16015625 C-1 1 -1 1 0 0 Z " fill="#050505" transform="translate(467,226)" data-index="43"></path>
<path d="M0 0 C0.33 0 0.66 0 1 0 C0.88652381 1.97986082 0.7589065 3.95891598 0.625 5.9375 C0.52058594 7.59072266 0.52058594 7.59072266 0.4140625 9.27734375 C0.27742188 10.17582031 0.14078125 11.07429687 0 12 C-0.99 12.495 -0.99 12.495 -2 13 C-3.71050559 8.02398374 -2.00885647 4.57383705 0 0 Z " fill="#030303" transform="translate(481,182)" data-index="44"></path>
<path d="M0 0 C0.66 0.33 1.32 0.66 2 1 C2.36923077 5.55384615 2.36923077 5.55384615 0.5 7.8125 C0.005 8.204375 -0.49 8.59625 -1 9 C-1.33 6.36 -1.66 3.72 -2 1 C-1.34 0.67 -0.68 0.34 0 0 Z " fill="#1C1C1C" transform="translate(97,20)" data-index="45" style="visibility: visible; opacity: 1; fill: rgb(4, 255, 0);"></path>
<path d="M0 0 C1.98510058 1.63707833 2.91847304 2.50096147 3.34057617 5.0847168 C3.32486572 5.86500244 3.30915527 6.64528809 3.29296875 7.44921875 C3.28330078 8.29677734 3.27363281 9.14433594 3.26367188 10.01757812 C3.23853516 10.89865234 3.21339844 11.77972656 3.1875 12.6875 C3.17396484 13.58017578 3.16042969 14.47285156 3.14648438 15.39257812 C3.11114079 17.59566166 3.06180493 19.79752582 3 22 C1.35 22 -0.3 22 -2 22 C-2.05401695 19.08308475 -2.09368066 16.16717276 -2.125 13.25 C-2.14175781 12.425 -2.15851563 11.6 -2.17578125 10.75 C-2.18222656 9.95078125 -2.18867187 9.1515625 -2.1953125 8.328125 C-2.20578613 7.5949707 -2.21625977 6.86181641 -2.22705078 6.10644531 C-1.96777544 3.70103924 -1.19225925 2.08748506 0 0 Z " fill="#F3F3F3" transform="translate(117,78)" data-index="46" style="visibility: visible; opacity: 1;"></path>
<path d="M0 0 C-0.33 1.32 -0.66 2.64 -1 4 C-2.65 4.33 -4.3 4.66 -6 5 C-5.625 3.0625 -5.625 3.0625 -5 1 C-3 0 -3 0 0 0 Z " fill="#252525" transform="translate(144,98)" data-index="47" style="visibility: visible; opacity: 1; fill: rgb(4, 255, 0);"></path>
<path d="M0 0 C-0.33 1.65 -0.66 3.3 -1 5 C-1.99 5 -2.98 5 -4 5 C-4 3.68 -4 2.36 -4 1 C-2 0 -2 0 0 0 Z " fill="#151515" transform="translate(154,94)" data-index="48" style="visibility: visible; opacity: 1; fill: rgb(4, 255, 0);"></path>
<path d="M0 0 C1.53445094 3.06890187 0.54984289 5.70094266 0 9 C-0.99 9 -1.98 9 -3 9 C-2.01 6.03 -1.02 3.06 0 0 Z " fill="#020202" transform="translate(493,229)" data-index="49"></path>
<path d="M0 0 C1.65 0 3.3 0 5 0 C4.67 0.99 4.34 1.98 4 3 C2.35 3.33 0.7 3.66 -1 4 C-0.67 2.68 -0.34 1.36 0 0 Z " fill="#161616" transform="translate(159,90)" data-index="50" style="visibility: visible; opacity: 1; stroke-width: 2px; stroke: rgb(4, 255, 0); fill: rgb(4, 255, 0);"></path>
<path d="" fill="#FFFFFF" transform="translate(0,0)" data-index="51"></path>
<path d="" fill="#FFFFFF" transform="translate(0,0)" data-index="52"></path>
<path d="" fill="#FFFFFF" transform="translate(0,0)" data-index="53"></path>
<path d="" fill="#FFFFFF" transform="translate(0,0)" data-index="54"></path>
<path d="" fill="#FFFFFF" transform="translate(0,0)" data-index="55"></path>
<path d="" fill="#FFFFFF" transform="translate(0,0)" data-index="56"></path>
<path d="" fill="#FFFFFF" transform="translate(0,0)" data-index="57"></path>
<path d="" fill="#FFFFFF" transform="translate(0,0)" data-index="58"></path>
<path d="" fill="#FFFFFF" transform="translate(0,0)" data-index="59"></path>
<path d="" fill="#FFFFFF" transform="translate(0,0)" data-index="60"></path>
<path d="" fill="#FFFFFF" transform="translate(0,0)" data-index="61"></path>
<path d="" fill="#FFFFFF" transform="translate(0,0)" data-index="62"></path>
<path d="" fill="#FFFFFF" transform="translate(0,0)" data-index="63"></path>
<path d="" fill="#FFFFFF" transform="translate(0,0)" data-index="64"></path>
<path d="" fill="#FFFFFF" transform="translate(0,0)" data-index="65"></path>
<path d="" fill="#FFFFFF" transform="translate(0,0)" data-index="66"></path>
<path d="" fill="#FFFFFF" transform="translate(0,0)" data-index="67"></path>
<path d="" fill="#FFFFFF" transform="translate(0,0)" data-index="68"></path>
<path d="" fill="#FFFFFF" transform="translate(0,0)" data-index="69"></path>
<path d="" fill="#FFFFFF" transform="translate(0,0)" data-index="70"></path>
<path d="" fill="#FFFFFF" transform="translate(0,0)" data-index="71"></path>
<path d="" fill="#FFFFFF" transform="translate(0,0)" data-index="72"></path>
<path d="" fill="#FFFFFF" transform="translate(0,0)" data-index="73"></path>
<path d="" fill="#FFFFFF" transform="translate(0,0)" data-index="74"></path>
<path d="" fill="#FFFFFF" transform="translate(0,0)" data-index="75"></path>
<path d="" fill="#FFFFFF" transform="translate(0,0)" data-index="76"></path>
<path d="" fill="#FFFFFF" transform="translate(0,0)" data-index="77"></path>
<path d="" fill="#FFFFFF" transform="translate(0,0)" data-index="78"></path>
<path d="" fill="#FFFFFF" transform="translate(0,0)" data-index="79"></path>
<path d="" fill="#FFFFFF" transform="translate(0,0)" data-index="80"></path>
<path d="" fill="#FFFFFF" transform="translate(0,0)" data-index="81"></path>
<path d="" fill="#FFFFFF" transform="translate(0,0)" data-index="82"></path>
<path d="" fill="#FFFFFF" transform="translate(0,0)" data-index="83"></path>
<path d="" fill="#FFFFFF" transform="translate(0,0)" data-index="84"></path>
<path d="" fill="#FFFFFF" transform="translate(0,0)" data-index="85"></path>
<path d="" fill="#FFFFFF" transform="translate(0,0)" data-index="86"></path>
<path d="" fill="#FFFFFF" transform="translate(0,0)" data-index="87"></path>
<path d="" fill="#FFFFFF" transform="translate(0,0)" data-index="88"></path>
<path d="" fill="#FFFFFF" transform="translate(0,0)" data-index="89"></path>
<path d="" fill="#FFFFFF" transform="translate(0,0)" data-index="90"></path>
<path d="" fill="#FFFFFF" transform="translate(0,0)" data-index="91"></path>
<path d="" fill="#FFFFFF" transform="translate(0,0)" data-index="92"></path>
<path d="" fill="#FFFFFF" transform="translate(0,0)" data-index="93"></path>
<path d="" fill="#FFFFFF" transform="translate(0,0)" data-index="94"></path>
<path d="" fill="#FFFFFF" transform="translate(0,0)" data-index="95"></path>
<path d="" fill="#FFFFFF" transform="translate(0,0)" data-index="96"></path>
<path d="" fill="#FFFFFF" transform="translate(0,0)" data-index="97"></path>
<path d="" fill="#FFFFFF" transform="translate(0,0)" data-index="98"></path>
<path d="" fill="#FFFFFF" transform="translate(0,0)" data-index="99"></path>
<path d="" fill="#FFFFFF" transform="translate(0,0)" data-index="100"></path>
<path d="" fill="#FFFFFF" transform="translate(0,0)" data-index="101"></path>
<path d="" fill="#FFFFFF" transform="translate(0,0)" data-index="102"></path>
<path d="" fill="#FFFFFF" transform="translate(0,0)" data-index="103"></path>
<path d="" fill="#FFFFFF" transform="translate(0,0)" data-index="104"></path>
<path d="" fill="#FFFFFF" transform="translate(0,0)" data-index="105"></path>
<path d="" fill="#FFFFFF" transform="translate(0,0)" data-index="106"></path>
<path d="" fill="#FFFFFF" transform="translate(0,0)" data-index="107"></path>
<path d="" fill="#FFFFFF" transform="translate(0,0)" data-index="108"></path>
<path d="" fill="#FFFFFF" transform="translate(0,0)" data-index="109"></path>
<path d="" fill="#FFFFFF" transform="translate(0,0)" data-index="110"></path>
<path d="" fill="#FFFFFF" transform="translate(0,0)" data-index="111"></path>
<path d="" fill="#FFFFFF" transform="translate(0,0)" data-index="112"></path>
<path d="" fill="#FFFFFF" transform="translate(0,0)" data-index="113"></path>
<path d="" fill="#FFFFFF" transform="translate(0,0)" data-index="114"></path>
<path d="" fill="#FFFFFF" transform="translate(0,0)" data-index="115"></path>
<path d="" fill="#FFFFFF" transform="translate(0,0)" data-index="116"></path>
<path d="" fill="#FFFFFF" transform="translate(0,0)" data-index="117"></path>
<path d="" fill="#FFFFFF" transform="translate(0,0)" data-index="118"></path>
<path d="" fill="#FFFFFF" transform="translate(0,0)" data-index="119"></path>
<path d="" fill="#FFFFFF" transform="translate(0,0)" data-index="120"></path>
<path d="" fill="#FFFFFF" transform="translate(0,0)" data-index="121"></path>
<path d="" fill="#FFFFFF" transform="translate(0,0)" data-index="122"></path>
<path d="" fill="#FFFFFF" transform="translate(0,0)" data-index="123"></path>
<path d="" fill="#FFFFFF" transform="translate(0,0)" data-index="124"></path>
<path d="" fill="#FFFFFF" transform="translate(0,0)" data-index="125"></path>
<path d="" fill="#FFFFFF" transform="translate(0,0)" data-index="126"></path>
<path d="" fill="#FFFFFF" transform="translate(0,0)" data-index="127"></path>
<path d="" fill="#FFFFFF" transform="translate(0,0)" data-index="128"></path>
<path d="" fill="#FFFFFF" transform="translate(0,0)" data-index="129"></path>
<path d="" fill="#FFFFFF" transform="translate(0,0)" data-index="130"></path>
<path d="" fill="#FFFFFF" transform="translate(0,0)" data-index="131"></path>
<path d="" fill="#FFFFFF" transform="translate(0,0)" data-index="132"></path>
<path d="" fill="#FFFFFF" transform="translate(0,0)" data-index="133"></path>
<path d="" fill="#FFFFFF" transform="translate(0,0)" data-index="134"></path>
<path d="" fill="#FFFFFF" transform="translate(0,0)" data-index="135"></path>
</svg>