<svg version="1.1" xmlns="http://www.w3.org/2000/svg" width="580" height="266"><defs>
                <linearGradient id="grad-39" gradientTransform="rotate(346 0.5 0.5)">
                
                        <stop stop-color="#f4f4f4" offset="0"></stop>
                    ,
                        <stop stop-color="#0c0c0c" offset="0.3333333333333333"></stop>
                    ,
                        <stop stop-color="#0c0c0c" offset="0.6666666666666666"></stop>
                    
                </linearGradient>
          </defs><defs>
                <linearGradient id="grad-38" gradientTransform="rotate(289 0.5 0.5)">
                
                        <stop stop-color="#f4f4f4" offset="0"></stop>
                    ,
                        <stop stop-color="#0c0c0c" offset="0.2"></stop>
                    ,
                        <stop stop-color="#0c0c0c" offset="0.4"></stop>
                    ,
                        <stop stop-color="#0c0c0c" offset="0.6"></stop>
                    ,
                        <stop stop-color="#f4f4f4" offset="0.8"></stop>
                    
                </linearGradient>
          </defs><defs>
                <linearGradient id="grad-37" gradientTransform="rotate(261 0.5 0.5)">
                
                        <stop stop-color="#f4f4f4" offset="0"></stop>
                    ,
                        <stop stop-color="#0c0c0c" offset="0.3333333333333333"></stop>
                    ,
                        <stop stop-color="#0c0c0c" offset="0.6666666666666666"></stop>
                    
                </linearGradient>
          </defs>

<path d="M0 0 C4.33033663 3.09418099 7.43993801 6.2391051 9.25 11.3125 C10.14904565 16.95561687 10.28970426 21.93131485 6.81323242 26.74560547 C3.22464754 30.34259715 -1.48612615 32.5820726 -5.875 35.0625 C-19.77734692 43.0470969 -19.77734692 43.0470969 -29.375 55.5625 C-30.90173134 66.40526753 -30.90173134 66.40526753 -27.75 76.375 C-26.76 77.014375 -25.77 77.65375 -24.75 78.3125 C-24.16863281 78.73660156 -23.58726563 79.16070312 -22.98828125 79.59765625 C-13.87017001 85.94149429 -3.42423631 86.94204484 7.375 88 C9.23898438 88.19432617 9.23898438 88.19432617 11.140625 88.39257812 C14.17631006 88.70782234 17.21260554 89.01425868 20.25 89.3125 C20.20359375 88.27351563 20.1571875 87.23453125 20.109375 86.1640625 C19.84803201 77.68922789 20.15600588 70.97435244 24.25 63.3125 C24.58 62.6525 24.91 61.9925 25.25 61.3125 C26.9 61.6425 28.55 61.9725 30.25 62.3125 C34.17100683 71.13476536 33.5254857 79.85415757 33.25 89.3125 C46.87252754 89.08476778 57.81699027 85.93450649 69.25 78.3125 C71.9375 78.6875 71.9375 78.6875 74.25 79.3125 C73.755 80.7975 73.755 80.7975 73.25 82.3125 C70.1875 83.5 70.1875 83.5 67.25 84.3125 C67.25 84.9725 67.25 85.6325 67.25 86.3125 C63.92903457 87.67832503 60.59239397 89.00009107 57.25 90.3125 C56.54359375 90.60898438 55.8371875 90.90546875 55.109375 91.2109375 C48.04865861 93.93281672 40.73438364 94.02653541 33.25 94.3125 C33.27320312 95.00214844 33.29640625 95.69179687 33.3203125 96.40234375 C33.33835937 97.34207031 33.35640625 98.28179687 33.375 99.25 C33.39820312 100.16652344 33.42140625 101.08304687 33.4453125 102.02734375 C33.28624228 104.7029049 32.93179035 106.73047148 32.27294922 109.28610229 C31.00902291 114.85401042 30.83329852 120.3281007 30.6875 126.02001953 C30.65140625 127.15791428 30.6153125 128.29580902 30.578125 129.46818542 C30.50124868 131.92664329 30.42830067 134.38522652 30.35888672 136.8439064 C30.24853291 140.74720471 30.1275547 144.65004961 30.00390625 148.552948 C29.76462578 156.144724 29.53749265 163.73683713 29.3125 171.32904816 C29.00716218 181.62968945 28.69598813 191.9301002 28.37060547 202.23012924 C28.25245355 206.05341771 28.14356369 209.87689467 28.03515625 213.70046997 C27.68293358 225.34960114 27.23958499 236.81187177 25.25 248.3125 C24.59 247.9825 23.93 247.6525 23.25 247.3125 C22.43422653 228.80174505 22.12297302 210.30001574 21.96875 191.7734375 C21.95920288 190.64166328 21.94965576 189.50988907 21.93981934 188.34381866 C21.86147863 178.91224301 21.79149457 169.48060862 21.72393799 160.0489502 C21.67299537 152.94951991 21.61832011 145.85014009 21.55812073 138.75078201 C21.53167463 135.45141347 21.51082014 132.1520394 21.4901123 128.85263062 C21.47352395 126.84755204 21.45665343 124.84247577 21.43945312 122.83740234 C21.43526871 121.92643799 21.43108429 121.01547363 21.42677307 120.0769043 C21.41842941 119.23968842 21.41008575 118.40247253 21.40148926 117.53988647 C21.39375866 116.45346642 21.39375866 116.45346642 21.38587189 115.3450985 C21.24433712 113.22778512 20.76549023 111.36658347 20.25 109.3125 C20.18073032 106.55279592 20.1558264 103.82053958 20.1875 101.0625 C20.19201172 100.31742187 20.19652344 99.57234375 20.20117188 98.8046875 C20.21290754 96.9739236 20.2308415 95.14320127 20.25 93.3125 C19.18523437 93.34730469 18.12046875 93.38210937 17.0234375 93.41796875 C7.34332476 93.63667133 -1.33840179 92.84325193 -10.75 90.3125 C-11.67683594 90.08433594 -12.60367188 89.85617188 -13.55859375 89.62109375 C-20.46807322 87.78066923 -26.97337737 84.80488566 -31.75 79.3125 C-31.75 78.6525 -31.75 77.9925 -31.75 77.3125 C-32.41 77.3125 -33.07 77.3125 -33.75 77.3125 C-36.8795844 70.46022448 -37.09470706 63.11725642 -34.58203125 56.0078125 C-30.16693122 46.90521552 -24.99353738 41.0781175 -16.75 35.3125 C-16.18667969 34.89484375 -15.62335938 34.4771875 -15.04296875 34.046875 C-11.89030276 31.78014806 -10.79728006 31.3125 -6.75 31.3125 C-6.75 30.6525 -6.75 29.9925 -6.75 29.3125 C-4.59765625 27.875 -4.59765625 27.875 -1.8125 26.3125 C1.87387208 24.45172105 1.87387208 24.45172105 4.25 21.3125 C4.75964076 15.19681092 4.35001398 12.16777971 0.25 7.3125 C-5.57347391 1.62137777 -11.1185519 -0.78691558 -19.1875 -1.125 C-30.34542529 -0.71060663 -37.24534136 5.62824269 -44.75 13.3125 C-47.285379 17.1155685 -47.34712134 19.85274996 -46.75 24.3125 C-44.82207085 27.35659865 -42.0871304 28.17567536 -38.75 29.3125 C-36.32007865 29.59585716 -33.8800498 29.80053459 -31.4375 29.9375 C-30.18324219 30.01226562 -28.92898437 30.08703125 -27.63671875 30.1640625 C-26.68410156 30.21304688 -25.73148438 30.26203125 -24.75 30.3125 C-25.08 31.6325 -25.41 32.9525 -25.75 34.3125 C-41.94693242 35.14193039 -41.94693242 35.14193039 -48.75 30.3125 C-51.54849063 27.24098589 -52.55457222 25.14306805 -53.5 21.125 C-51.64315327 11.68602911 -43.29846839 3.83418514 -35.75 -1.6875 C-24.48248456 -9.03950176 -10.95420727 -6.6121613 0 0 Z " fill="#161616" transform="translate(90.75,10.6875)" data-index="0" style="fill: rgb(20, 20, 20); visibility: visible; opacity: 1;"></path>
<path d="M0 0 C2.625 0.375 2.625 0.375 5 1 C4.3677739 10.66547604 3.03209554 20.18120876 1.56640625 29.74609375 C1.32582614 31.33119554 1.08542729 32.91632486 0.84519958 34.5014801 C0.34445711 37.79885774 -0.15937156 41.09574566 -0.6652832 44.39233398 C-1.31214271 48.60991118 -1.94972806 52.82883278 -2.58488369 57.0481863 C-3.07739012 60.31136987 -3.5754788 63.57368304 -4.07518196 66.83577156 C-4.312685 68.39156558 -4.54829803 69.94764938 -4.78195 71.50402641 C-5.10853966 73.67475776 -5.442819 75.84417219 -5.77905273 78.01342773 C-5.96700912 79.24520248 -6.15496552 80.47697723 -6.34861755 81.74607849 C-6.94325182 84.71651964 -7.76575513 87.2429455 -9 90 C-10.65 89.67 -12.3 89.34 -14 89 C-14 85 -14 81 -14 77 C-14.59167969 77.68707031 -15.18335938 78.37414062 -15.79296875 79.08203125 C-16.58316406 79.98308594 -17.37335938 80.88414062 -18.1875 81.8125 C-18.96480469 82.70582031 -19.74210937 83.59914063 -20.54296875 84.51953125 C-23.43025508 87.43435926 -26.02117577 89.59096929 -30.09765625 90.43359375 C-33.63140138 90.44061909 -35.60382446 90.30475042 -38.4375 88.125 C-42.38937867 82.75044501 -41.484448 76.42746506 -41 70 C-38.7656784 60.62861683 -33.00526285 52.63382161 -25.14453125 47.1328125 C-21.57021518 45.24474026 -18.01762092 44.4960716 -14 45 C-11.96811195 45.93350465 -9.96034472 46.92433807 -8 48 C-7.85304688 46.28683594 -7.85304688 46.28683594 -7.703125 44.5390625 C-6.77448728 34.27030693 -5.52617083 24.07259599 -4 13.875 C-3.8340332 12.73111816 -3.66806641 11.58723633 -3.49707031 10.40869141 C-3.25102051 8.81033447 -3.25102051 8.81033447 -3 7.1796875 C-2.855625 6.22819824 -2.71125 5.27670898 -2.5625 4.29638672 C-2 2 -2 2 0 0 Z " fill="#090909" transform="translate(362,166)" data-index="1" style="opacity: 1; fill: rgb(12, 12, 12); visibility: visible; display: block;"></path>
<path d="M0 0 C1.24123878 0.00213753 1.24123878 0.00213753 2.5075531 0.00431824 C3.44514969 0.00124161 4.38274628 -0.00183502 5.34875488 -0.00500488 C6.36336288 0.00218063 7.37797089 0.00936615 8.42332458 0.01676941 C9.9803434 0.01745674 9.9803434 0.01745674 11.56881714 0.01815796 C13.76536704 0.02118233 15.96191476 0.02907411 18.15843201 0.04142761 C21.53391556 0.05968136 24.90912497 0.06193737 28.28465271 0.06169128 C30.41421239 0.06660638 32.5437702 0.07243467 34.67332458 0.07926941 C35.68995682 0.08038223 36.70658905 0.08149506 37.75402832 0.0826416 C38.68847275 0.08902145 39.62291718 0.09540131 40.5856781 0.10197449 C41.41237503 0.10578629 42.23907196 0.10959808 43.09082031 0.11352539 C44.98191833 0.24723816 44.98191833 0.24723816 45.98191833 1.24723816 C46.10691833 3.74723816 46.10691833 3.74723816 45.98191833 6.24723816 C44.98191833 7.24723816 44.98191833 7.24723816 43.22921753 7.36749268 C42.46754776 7.36527206 41.70587799 7.36305145 40.92112732 7.36076355 C40.06031052 7.36068802 39.19949371 7.36061249 38.31259155 7.36053467 C37.37718033 7.35537338 36.4417691 7.3502121 35.47801208 7.34489441 C34.5249971 7.34347946 33.57198212 7.34206451 32.59008789 7.34060669 C29.53316668 7.33498968 26.47631757 7.32243432 23.41941833 7.30973816 C21.3523621 7.30472535 19.28530472 7.30016206 17.21824646 7.29606628 C12.13944246 7.28501472 7.06069264 7.26773871 1.98191833 7.24723816 C1.92639801 7.95077423 1.87087769 8.6543103 1.81367493 9.37916565 C1.20173997 16.95889191 0.11233784 24.42735425 -1.08058167 31.93473816 C-1.2668512 33.12518738 -1.45312073 34.3156366 -1.64503479 35.54216003 C-2.099596 38.44435852 -2.55733149 41.34601695 -3.01808167 44.24723816 C-1.36038757 44.23152771 -1.36038757 44.23152771 0.33079529 44.21549988 C4.4289069 44.17931409 8.52700437 44.15634287 12.62522888 44.13737488 C14.39934158 44.12731405 16.17343768 44.11366394 17.94749451 44.09635925 C20.49677118 44.07211438 23.04582871 44.06075598 25.59519958 44.05192566 C26.38904556 44.04160309 27.18289154 44.03128052 28.00079346 44.02064514 C31.86414877 44.01985706 33.69031279 44.05283447 36.98191833 46.24723816 C36.65191833 47.89723816 36.32191833 49.54723816 35.98191833 51.24723816 C22.45191833 51.24723816 8.92191833 51.24723816 -5.01808167 51.24723816 C-5.67808167 56.85723816 -6.33808167 62.46723816 -7.01808167 68.24723816 C-7.38860735 71.26862356 -7.76216898 74.28964469 -8.14308167 77.30973816 C-8.22944885 77.99616394 -8.31581604 78.68258972 -8.40480042 79.38981628 C-8.608618 81.00903375 -8.81324406 82.62814942 -9.01808167 84.24723816 C-7.21621399 84.28482239 -7.21621399 84.28482239 -5.37794495 84.32316589 C-0.93121737 84.4171696 3.51535141 84.51740733 7.9618988 84.61955261 C9.88829338 84.66292817 11.81472705 84.7046013 13.74119568 84.74455261 C16.50645242 84.80219178 19.27151184 84.86590432 22.03660583 84.93083191 C22.90123444 84.9475444 23.76586304 84.9642569 24.6566925 84.98147583 C30.75417492 85.13336645 30.75417492 85.13336645 32.98191833 86.24723816 C32.10691833 91.12223816 32.10691833 91.12223816 30.98191833 92.24723816 C29.51386541 92.3454656 28.04114373 92.37522186 26.56980896 92.37663269 C25.63213684 92.37978485 24.69446472 92.38293701 23.7283783 92.38618469 C22.70860901 92.38416046 21.68883972 92.38213623 20.63816833 92.38005066 C19.0790271 92.38148575 19.0790271 92.38148575 17.48838806 92.38294983 C15.2858728 92.38363179 13.08335554 92.38177643 10.88084412 92.37760925 C7.49652114 92.37226124 4.1123309 92.37755374 0.72801208 92.38395691 C-1.40610279 92.38329613 -3.54021759 92.38201497 -5.67433167 92.38005066 C-6.69410095 92.38207489 -7.71387024 92.38409912 -8.76454163 92.38618469 C-10.1710498 92.38145645 -10.1710498 92.38145645 -11.60597229 92.37663269 C-12.43568542 92.3758371 -13.26539856 92.3750415 -14.12025452 92.3742218 C-16.01808167 92.24723816 -16.01808167 92.24723816 -17.01808167 91.24723816 C-17.25518011 84.93662296 -16.70144165 79.0835689 -15.62745667 72.87614441 C-15.41046364 71.56806068 -15.41046364 71.56806068 -15.18908691 70.23355103 C-14.72187902 67.42448988 -14.24497286 64.61716988 -13.76808167 61.80973816 C-13.28203786 58.90063607 -12.79855556 55.99111578 -12.31524658 53.08155823 C-11.99567847 51.15859129 -11.6752995 49.23575893 -11.35409546 47.31306458 C-9.90834087 38.64626206 -8.56112812 29.96670727 -7.26124573 21.27677917 C-6.85755419 18.59844111 -6.44237131 15.92238684 -6.01808167 13.24723816 C-5.86033264 12.24048035 -5.70258362 11.23372253 -5.54005432 10.19645691 C-5.37424866 9.20258972 -5.20844299 8.20872253 -5.03761292 7.18473816 C-4.89041809 6.2862616 -4.74322327 5.38778503 -4.59156799 4.46208191 C-3.84713846 1.58704372 -3.0303265 0.37124977 0 0 Z " fill="#0B0B0B" transform="translate(417.01808166503906,165.7527618408203)" data-index="2" style="fill: rgb(12, 12, 12); visibility: visible; opacity: 1; display: block;"></path>
<path d="M0 0 C3.125 1.5 3.125 1.5 5 3 C5.33 2.01 5.66 1.02 6 0 C7.65 0 9.3 0 11 0 C11.54594727 9.1800022 9.99536095 17.76773182 8.38476562 26.75195312 C7.60513125 31.3070758 7.02801962 35.89069185 6.4296875 40.47265625 C6 43 6 43 5 44 C3.35 44 1.7 44 0 44 C0 38.06 0 32.12 0 26 C-1.175625 27.69125 -2.35125 29.3825 -3.5625 31.125 C-7.81436745 36.96192758 -12.60206149 43.29278342 -20 45 C-23.0625 44.9375 -23.0625 44.9375 -26 44 C-29.92943064 39.85816771 -31.32067919 37.06608622 -31.20703125 31.33203125 C-30.29381053 21.04537517 -25.02675185 11.25590325 -17.3125 4.4375 C-11.78586187 -0.00755262 -7.00143337 -0.78045057 0 0 Z " fill="#0A0A0A" transform="translate(302,213)" data-index="3" style="opacity: 1; visibility: visible; fill: rgb(12, 12, 12); display: block;"></path>
<path d="M0 0 C0.20364906 7.04134799 -0.55604917 13.56038769 -1.75 20.4921875 C-1.92756836 21.55994415 -2.10513672 22.62770081 -2.28808594 23.72781372 C-2.85189739 27.11139463 -3.42544585 30.49322824 -4 33.875 C-4.57284907 37.27845393 -5.1436338 40.68223654 -5.71191406 44.0864563 C-6.06499493 46.19819305 -6.42101678 48.30944062 -6.78027344 50.4201355 C-6.94043945 51.37187653 -7.10060547 52.32361755 -7.265625 53.30419922 C-7.40774414 54.14087128 -7.54986328 54.97754333 -7.69628906 55.83956909 C-8.06960502 58.13151908 -8.06960502 58.13151908 -8 61 C-7.56429687 60.40832031 -7.12859375 59.81664062 -6.6796875 59.20703125 C-2.74835495 53.99078265 1.03269761 48.98365119 7 46 C14.12643678 45.54022989 14.12643678 45.54022989 17.375 47.25 C21.89299524 52.11553334 21.34264902 57.19464243 21.26171875 63.55078125 C21.04089924 68.49736239 20.38152621 73.35991553 19.625 78.25 C19.49907471 79.07185791 19.37314941 79.89371582 19.2434082 80.74047852 C18.60482366 84.55010282 18.19417959 86.70873062 16 90 C14.35 89.67 12.7 89.34 11 89 C10.81927653 84.30118975 11.10382153 80.11973693 12 75.5 C13.36494098 68.00243686 13.17331875 60.58750975 13 53 C8.56539542 53.50681195 6.23233314 54.95013728 3 58 C-4.24076534 67.66907079 -9.02641533 79.06123959 -14 90 C-15.66611905 90.042721 -17.33382885 90.04063832 -19 90 C-19.33 89.67 -19.66 89.34 -20 89 C-19.81176173 81.93105203 -18.54860371 74.9823749 -17.1875 68.0625 C-15.51515691 59.25943974 -14.16190834 50.43842383 -12.9375 41.5625 C-11.75900862 33.04118885 -10.46794676 24.62550201 -8.65234375 16.21484375 C-7.72490763 11.64430527 -7.11809936 7.03883497 -6.52734375 2.4140625 C-6.35332031 1.61742187 -6.17929688 0.82078125 -6 0 C-3.50907189 -1.24546405 -2.58919267 -0.7767578 0 0 Z " fill="#0C0C0C" transform="translate(158,167)" data-index="4" style="fill: rgb(12, 12, 12); visibility: visible; opacity: 1;"></path>
<path d="M0 0 C3.25 2.0625 3.25 2.0625 5 5 C5.67290102 9.11217293 5.3624053 11.27518939 3.5 15 C-3.66968718 23.60362461 -11.99534306 28.53705297 -23 31 C-22.80528889 32.94999129 -22.80528889 32.94999129 -22 35 C-18.27874025 37.38814912 -15.54633449 37.12223414 -11.30859375 36.55859375 C-8.95360757 35.98877476 -7.30502318 35.20109194 -5.25 33.9375 C-2.02217559 32.01322006 -0.64770769 31.55785361 3 32 C3.495 33.98 3.495 33.98 4 36 C-3.02923697 42.61330579 -8.42548712 44.48905599 -18.15234375 44.3203125 C-23.00311407 43.77468401 -25.62867899 41.56722401 -28.75 38 C-32.16071379 32.54285794 -32.7174693 28.40203373 -32 22 C-29.94379124 13.3587176 -25.16292821 7.80765955 -18.125 2.6171875 C-12.5180603 -0.72361407 -6.3599443 -1.04022045 0 0 Z " fill="#090909" transform="translate(571,212)" data-index="5" style="fill: rgb(12, 12, 12); visibility: visible; opacity: 1;"></path>
<path d="M0 0 C2.56974827 3.34067276 3.01588906 5.21082826 2.875 9.4375 C-0.01250053 17.07734515 -6.64375995 22.14963799 -13.71875 25.76171875 C-18.27731906 27.71833348 -22.08640332 28.9678786 -27.125 28.4375 C-25.63860625 31.47491332 -24.44509109 33.88903038 -21.20703125 35.234375 C-15.27587223 36.28413766 -11.51735994 34.56091068 -6.484375 31.46875 C-3.59480947 30.20576109 -2.09672943 30.552304 0.875 31.4375 C0.875 33.625 0.875 33.625 -0.125 36.4375 C-7.20748631 42.1701851 -14.17440293 43.31361664 -23.125 42.4375 C-26.6875 40.625 -26.6875 40.625 -29.125 38.4375 C-29.7025 37.963125 -30.28 37.48875 -30.875 37 C-34.54958779 32.40676526 -34.61383445 27.20801402 -34.49609375 21.5703125 C-33.54755135 13.56261774 -29.37810337 7.75943357 -23.15234375 2.84375 C-16.24322775 -1.9487004 -7.76782628 -3.88391314 0 0 Z " fill="#080808" transform="translate(262.125,213.5625)" data-index="6" style="opacity: 1; fill: rgb(4, 4, 4); visibility: visible;"></path>
<path d="M0 0 C4.33033663 3.09418099 7.43993801 6.2391051 9.25 11.3125 C10.14904565 16.95561687 10.28970426 21.93131485 6.81323242 26.74560547 C3.22464754 30.34259715 -1.48612615 32.5820726 -5.875 35.0625 C-19.77734692 43.0470969 -19.77734692 43.0470969 -29.375 55.5625 C-30.90173134 66.40526753 -30.90173134 66.40526753 -27.75 76.375 C-26.76 77.014375 -25.77 77.65375 -24.75 78.3125 C-24.16863281 78.73660156 -23.58726563 79.16070312 -22.98828125 79.59765625 C-13.63098648 86.10790393 -2.77810557 87.06264804 8.25 88.3125 C6.27 88.8075 6.27 88.8075 4.25 89.3125 C4.58 89.9725 4.91 90.6325 5.25 91.3125 C8.27934491 91.97022428 8.27934491 91.97022428 11.25 92.3125 C11.25 92.6425 11.25 92.9725 11.25 93.3125 C3.61550852 93.77056949 -3.35747563 92.11900652 -10.75 90.3125 C-11.6884375 90.08433594 -12.626875 89.85617188 -13.59375 89.62109375 C-20.48795435 87.75923301 -26.97834075 84.79917852 -31.75 79.3125 C-31.75 78.6525 -31.75 77.9925 -31.75 77.3125 C-32.41 77.3125 -33.07 77.3125 -33.75 77.3125 C-36.8795844 70.46022448 -37.09470706 63.11725642 -34.58203125 56.0078125 C-30.16693122 46.90521552 -24.99353738 41.0781175 -16.75 35.3125 C-16.18667969 34.89484375 -15.62335938 34.4771875 -15.04296875 34.046875 C-11.89030276 31.78014806 -10.79728006 31.3125 -6.75 31.3125 C-6.75 30.6525 -6.75 29.9925 -6.75 29.3125 C-4.59765625 27.875 -4.59765625 27.875 -1.8125 26.3125 C1.87387208 24.45172105 1.87387208 24.45172105 4.25 21.3125 C4.75964076 15.19681092 4.35001398 12.16777971 0.25 7.3125 C-5.57347391 1.62137777 -11.1185519 -0.78691558 -19.1875 -1.125 C-30.34542529 -0.71060663 -37.24534136 5.62824269 -44.75 13.3125 C-47.285379 17.1155685 -47.34712134 19.85274996 -46.75 24.3125 C-44.82207085 27.35659865 -42.0871304 28.17567536 -38.75 29.3125 C-36.32007865 29.59585716 -33.8800498 29.80053459 -31.4375 29.9375 C-30.18324219 30.01226562 -28.92898437 30.08703125 -27.63671875 30.1640625 C-26.68410156 30.21304688 -25.73148438 30.26203125 -24.75 30.3125 C-25.08 31.6325 -25.41 32.9525 -25.75 34.3125 C-41.94693242 35.14193039 -41.94693242 35.14193039 -48.75 30.3125 C-51.54849063 27.24098589 -52.55457222 25.14306805 -53.5 21.125 C-51.64315327 11.68602911 -43.29846839 3.83418514 -35.75 -1.6875 C-24.48248456 -9.03950176 -10.95420727 -6.6121613 0 0 Z " fill="#1D1D1D" transform="translate(90.75,10.6875)" data-index="7" style="fill: rgb(28, 28, 28); visibility: visible; opacity: 1;"></path>
<path d="M0 0 C1.2065625 0.0309375 1.2065625 0.0309375 2.4375 0.0625 C3.63719483 4.38793034 3.15924984 7.57125457 2.25 11.9375 C1.96545499 13.3433481 1.68303944 14.74962828 1.40234375 16.15625 C1.24749512 16.92710937 1.09264648 17.69796875 0.93310547 18.4921875 C-0.22162735 24.48087079 -1.19598225 30.50419641 -2.20385742 36.51904297 C-2.3660376 37.46924316 -2.52821777 38.41944336 -2.6953125 39.3984375 C-2.83855957 40.24970215 -2.98180664 41.1009668 -3.12939453 41.97802734 C-3.5625 44.0625 -3.5625 44.0625 -4.5625 46.0625 C-3.71945312 46.05089844 -2.87640625 46.03929687 -2.0078125 46.02734375 C-0.91210938 46.01832031 0.18359375 46.00929687 1.3125 46 C2.94832031 45.98259766 2.94832031 45.98259766 4.6171875 45.96484375 C7.4375 46.0625 7.4375 46.0625 9.4375 47.0625 C9.4375 48.7125 9.4375 50.3625 9.4375 52.0625 C6.55334117 53.50457941 4.02028472 53.15644887 0.8125 53.125 C-0.37601563 53.11597656 -1.56453125 53.10695312 -2.7890625 53.09765625 C-3.70429687 53.08605469 -4.61953125 53.07445312 -5.5625 53.0625 C-5.70945312 54.19558594 -5.70945312 54.19558594 -5.859375 55.3515625 C-6.92575062 63.20229335 -8.19100362 71.00972885 -9.5625 78.8125 C-9.8114502 80.27743896 -9.8114502 80.27743896 -10.06542969 81.77197266 C-10.31147949 83.14554932 -10.31147949 83.14554932 -10.5625 84.546875 C-10.706875 85.36897461 -10.85125 86.19107422 -11 87.03808594 C-11.5625 89.0625 -11.5625 89.0625 -13.5625 91.0625 C-15.6875 90.6875 -15.6875 90.6875 -17.5625 90.0625 C-18.88575777 86.31077003 -18.29105304 83.33586943 -17.6015625 79.46875 C-17.37726562 78.19128906 -17.15296875 76.91382813 -16.921875 75.59765625 C-16.67713974 74.2525939 -16.43234751 72.90754192 -16.1875 71.5625 C-15.94979842 70.2175754 -15.71281167 68.87252425 -15.4765625 67.52734375 C-13.59627894 56.9400653 -13.59627894 56.9400653 -12.5625 53.0625 C-13.82707031 53.09730469 -13.82707031 53.09730469 -15.1171875 53.1328125 C-16.76074219 53.15988281 -16.76074219 53.15988281 -18.4375 53.1875 C-19.52804687 53.21070313 -20.61859375 53.23390625 -21.7421875 53.2578125 C-24.5625 53.0625 -24.5625 53.0625 -26.5625 51.0625 C-26.5625 49.7425 -26.5625 48.4225 -26.5625 47.0625 C-23.55936252 45.56093126 -20.77182478 45.96968796 -17.4375 46 C-16.15617188 46.00902344 -14.87484375 46.01804688 -13.5546875 46.02734375 C-12.07355469 46.04474609 -12.07355469 46.04474609 -10.5625 46.0625 C-10.59335693 45.09231934 -10.62421387 44.12213867 -10.65600586 43.12255859 C-10.65203354 38.67620558 -9.8916911 34.4593214 -9.06640625 30.1015625 C-8.91340561 29.2703891 -8.76040497 28.4392157 -8.60276794 27.58285522 C-8.28040425 25.83934943 -7.9550034 24.09640271 -7.62670898 22.35400391 C-7.12287301 19.67619536 -6.63008315 16.99651975 -6.13867188 14.31640625 C-5.82356341 12.61967143 -5.50783061 10.92305241 -5.19140625 9.2265625 C-5.04345108 8.42247955 -4.89549591 7.61839661 -4.74305725 6.78994751 C-3.47062141 0.0846493 -3.47062141 0.0846493 0 0 Z " fill="#0C0C0C" transform="translate(529.5625,164.9375)" data-index="8" style="fill: rgb(12, 12, 12); visibility: visible; opacity: 1; display: block;"></path>
<path d="M0 0 C1.32 0.66 2.64 1.32 4 2 C3.39319103 9.23823995 2.615308 16.42946418 1.625 23.625 C1.5115625 24.48222656 1.398125 25.33945313 1.28125 26.22265625 C0.41558223 32.56781685 -0.66819449 38.86574804 -1.80024719 45.16764832 C-2.78082626 50.66290853 -3.67621313 56.16810113 -4.53515625 61.68359375 C-4.78971354 63.30533854 -5.04427083 64.92708333 -5.29882812 66.54882812 C-5.6866515 69.02359342 -6.07185042 71.49865731 -6.45043945 73.97485352 C-6.82542665 76.42065845 -7.21060373 78.86467331 -7.59765625 81.30859375 C-7.70916519 82.05427109 -7.82067413 82.79994843 -7.93556213 83.56822205 C-8.77259552 88.77259552 -8.77259552 88.77259552 -11 91 C-14.53571429 90.46428571 -14.53571429 90.46428571 -16 89 C-15.9545265 82.61097384 -14.94136952 76.36043459 -13.625 70.125 C-12.39220537 64.24415673 -11.45902381 58.39519112 -10.6875 52.4375 C-9.36289279 42.39885651 -7.9223055 32.37877848 -6.39614868 22.368927 C-6.13239191 20.62523892 -5.87340538 18.88082248 -5.61923218 17.13571167 C-5.25867178 14.66651812 -4.88138833 12.2004256 -4.5 9.734375 C-4.39375809 8.98327957 -4.28751617 8.23218414 -4.17805481 7.45832825 C-3.84375 5.36621094 -3.84375 5.36621094 -3 2 C-2.01 1.34 -1.02 0.68 0 0 Z " fill="#0F0F0F" transform="translate(479,166)" data-index="9" style="fill: rgb(12, 12, 12); visibility: visible; opacity: 1;"></path>
<path d="M0 0 C2.625 0.375 2.625 0.375 5 1 C5 3.64 5 6.28 5 9 C5.9075 8.21625 6.815 7.4325 7.75 6.625 C12.03186254 2.9270278 15.22274726 1.70911949 20.9375 1.6875 C21.95714844 1.67074219 22.97679687 1.65398437 24.02734375 1.63671875 C27.36870105 2.04505808 29.26340652 3.08992831 32 5 C31.67 6.32 31.34 7.64 31 9 C26.25 10.125 26.25 10.125 24 9 C21.95292321 8.94724576 21.95292321 8.94724576 19.6875 9.1875 C18.92824219 9.24292969 18.16898438 9.29835937 17.38671875 9.35546875 C12.78972348 10.59688318 10.50042437 13.153128 8.12109375 17.1796875 C7.54380217 18.40399829 6.98320806 19.63628889 6.4375 20.875 C6.14012939 21.52686279 5.84275879 22.17872559 5.53637695 22.8503418 C3.03274077 28.5202009 1.32632319 34.25431665 -0.17578125 40.26953125 C-1 43 -1 43 -3 45 C-5.125 44.625 -5.125 44.625 -7 44 C-7.35098202 35.27471017 -6.46721062 26.96791673 -4.97363281 18.38720703 C-4.61977339 16.34483356 -4.28561022 14.29985698 -3.953125 12.25390625 C-2.25908801 2.25908801 -2.25908801 2.25908801 0 0 Z " fill="#0A0A0A" transform="translate(195,211)" data-index="10" style="fill: rgb(12, 12, 12); visibility: visible; opacity: 1;"></path>
<path d="M0 0 C0.33 0.33 0.66 0.66 1 1 C0.77326091 11.20325894 -5.45585086 20.02937784 -12.16796875 27.2578125 C-14 29 -14 29 -17 31 C-20.51724138 30.48275862 -20.51724138 30.48275862 -22 29 C-22.9942912 20.78487272 -21.2796155 14.35252916 -16.31640625 7.765625 C-8.15936561 -1.84740354 -8.15936561 -1.84740354 0 0 Z " fill="#F5F5F5" transform="translate(349,219)" data-index="11" style="opacity: 1; fill: rgb(204, 204, 204); visibility: visible; display: block;"></path>
<path d="M0 0 C3.4375 0.75 3.4375 0.75 5.4375 2.75 C4.33439934 12.9930776 -5.55508717 22.91409727 -12.5625 29.75 C-15.5625 31.75 -15.5625 31.75 -17.75 31.375 C-18.6471875 31.065625 -18.6471875 31.065625 -19.5625 30.75 C-20.59115844 22.13974787 -18.21312965 15.9696456 -13.5625 8.75 C-6.00223349 -0.42120937 -6.00223349 -0.42120937 0 0 Z " fill="#F5F5F5" transform="translate(297.5625,219.25)" data-index="12" style="opacity: 1; visibility: visible; fill: rgb(204, 204, 204); display: block; stroke-width: 2px; stroke: rgb(204, 204, 204);"></path>
<path d="M0 0 C2.625 0.375 2.625 0.375 5 1 C4.42194978 10.1130413 3.13426574 19.00931669 1.5625 28 C1.23668945 29.94326172 1.23668945 29.94326172 0.90429688 31.92578125 C0.68966797 33.16714844 0.47503906 34.40851563 0.25390625 35.6875 C0.06127197 36.80511719 -0.1313623 37.92273438 -0.32983398 39.07421875 C-0.92978542 41.69346028 -1.67002934 43.68320873 -3 46 C-4.65 45.67 -6.3 45.34 -8 45 C-7.47857652 35.09965115 -6.28039461 25.51645624 -4.5625 15.75 C-4.34267742 14.43366408 -4.12327485 13.11725794 -3.90429688 11.80078125 C-3.68966797 10.56199219 -3.47503906 9.32320312 -3.25390625 8.046875 C-3.06127197 6.93151367 -2.8686377 5.81615234 -2.67016602 4.66699219 C-2 2 -2 2 0 0 Z " fill="#0D0D0D" transform="translate(490,212)" data-index="13" style="fill: rgb(12, 12, 12); visibility: visible; opacity: 1;"></path>
<path d="M0 0 C0.75 2.1875 0.75 2.1875 1 5 C-2.22620246 10.99151885 -9.30457173 14.85164158 -15.65234375 16.82421875 C-17.7527445 17.29208053 -19.87557778 17.65735125 -22 18 C-21.86355801 12.54232045 -19.61312649 9.66737096 -16.03125 5.8359375 C-11.24997987 1.51440489 -6.52951874 -0.65295187 0 0 Z " fill="#F0F0F0" transform="translate(257,218)" data-index="14" style="opacity: 1; fill: rgb(204, 204, 204); visibility: visible; stroke-width: 2px; stroke: rgb(204, 204, 204);"></path>
<path d="M0 0 C0.8125 2.125 0.8125 2.125 1 5 C-2.7302852 11.49345943 -9.20921031 14.31689519 -16 17 C-17.98909265 17.39321947 -19.98848759 17.74518844 -22 18 C-21.29908669 12.04223683 -18.38513944 8.32491599 -14.125 4.25 C-9.53292822 0.94370832 -5.64804152 -0.33223774 0 0 Z " fill="#F2F2F2" transform="translate(568,218)" data-index="15" style="fill: rgb(204, 204, 204); visibility: visible; opacity: 1; stroke-width: 2px; stroke: rgb(204, 204, 204);"></path>
<path d="M0 0 C4.875 0.875 4.875 0.875 6 2 C6.04063832 3.66617115 6.042721 5.33388095 6 7 C5.34 7 4.68 7 4 7 C4.0721875 7.66644531 4.144375 8.33289063 4.21875 9.01953125 C4.89198264 15.70510535 5.11693011 22.2830148 5 29 C2.69 29 0.38 29 -2 29 C-2.33 24.71 -2.66 20.42 -3 16 C-3.66 17.32 -4.32 18.64 -5 20 C-5.56404293 12.38542051 -3.3779142 6.7558284 0 0 Z " fill="#3C3C3C" transform="translate(116,72)" data-index="16" style="fill: rgb(60, 60, 60); visibility: visible; opacity: 1;"></path>
<path d="M0 0 C0.66 0.33 1.32 0.66 2 1 C1.525625 1.391875 1.05125 1.78375 0.5625 2.1875 C-1.20231495 3.88937873 -1.20231495 3.88937873 -1.25 6.25 C-2.11413651 9.41850054 -3.06318651 10.19161069 -5.4375 12.375 C-11.64183919 18.28751955 -11.44120857 25.86811423 -12 34 C-12.33 34 -12.66 34 -13 34 C-13.06058594 33.25234375 -13.12117188 32.5046875 -13.18359375 31.734375 C-13.26738281 30.74953125 -13.35117187 29.7646875 -13.4375 28.75 C-13.51871094 27.77546875 -13.59992187 26.8009375 -13.68359375 25.796875 C-13.90631641 23.08310252 -13.90631641 23.08310252 -14.63671875 20.8828125 C-15.35097151 17.18098635 -12.87795112 14.07247067 -11 11 C-7.75344473 6.64278109 -4.22972102 3.34443058 0 0 Z " fill="#292929" transform="translate(72,47)" data-index="17" style="fill: rgb(44, 44, 44); stroke: rgb(44, 44, 44); visibility: visible;"></path>
<path d="M0 0 C1.98510058 1.63707833 2.91847304 2.50096147 3.34057617 5.0847168 C3.32486572 5.86500244 3.30915527 6.64528809 3.29296875 7.44921875 C3.28330078 8.29677734 3.27363281 9.14433594 3.26367188 10.01757812 C3.23853516 10.89865234 3.21339844 11.77972656 3.1875 12.6875 C3.17396484 13.58017578 3.16042969 14.47285156 3.14648438 15.39257812 C3.11114079 17.59566166 3.06180493 19.79752582 3 22 C1.35 22 -0.3 22 -2 22 C-2.05401695 19.08308475 -2.09368066 16.16717276 -2.125 13.25 C-2.14175781 12.425 -2.15851563 11.6 -2.17578125 10.75 C-2.18222656 9.95078125 -2.18867187 9.1515625 -2.1953125 8.328125 C-2.20578613 7.5949707 -2.21625977 6.86181641 -2.22705078 6.10644531 C-1.96777544 3.70103924 -1.19225925 2.08748506 0 0 Z " fill="#F3F3F3" transform="translate(117,78)" data-index="18" style="fill: rgb(255, 255, 255); visibility: visible; opacity: 1;"></path>
<path d="M0 0 C1.65 0 3.3 0 5 0 C5.02717692 2.06242617 5.0464758 4.12495703 5.0625 6.1875 C5.07410156 7.33605469 5.08570312 8.48460938 5.09765625 9.66796875 C5.01192832 12.59300586 4.67849023 15.16316291 4 18 C3.01 18 2.02 18 1 18 C-0.59412284 14.81175432 -0.10174735 11.37103338 -0.0625 7.875 C-0.05798828 7.12089844 -0.05347656 6.36679688 -0.04882812 5.58984375 C-0.03703499 3.72652873 -0.01909942 1.86325445 0 0 Z " fill="#DDDDDD" transform="translate(115,105)" data-index="19" style="fill: rgb(255, 255, 255); visibility: visible; opacity: 1; stroke: rgb(255, 255, 255);"></path>
<path d="M0 0 C5.94 0.33 11.88 0.66 18 1 C17.67 2.32 17.34 3.64 17 5 C14.75026553 5.054138 12.50015617 5.09285491 10.25 5.125 C8.99703125 5.14820313 7.7440625 5.17140625 6.453125 5.1953125 C3.27179508 5.01537302 1.63478104 4.68998582 -1 3 C-0.67 2.01 -0.34 1.02 0 0 Z " fill="#161616" transform="translate(48,40)" data-index="20" style="fill: rgb(20, 20, 20); stroke: rgb(20, 20, 20); visibility: visible;"></path>
<path d="M0 0 C4.71137036 1.88454814 9.07320759 3.71245287 13 7 C14.375 10.75 14.375 10.75 15 14 C14.01 14.33 13.02 14.66 12 15 C11.55269531 14.48050781 11.10539062 13.96101563 10.64453125 13.42578125 C6.49728023 8.64019924 6.49728023 8.64019924 2.0625 4.125 C0 2 0 2 0 0 Z " fill="#151515" transform="translate(82,7)" data-index="21" style="fill: rgb(20, 20, 20); stroke: rgb(20, 20, 20); visibility: visible;"></path>
<path d="M0 0 C0.33 0 0.66 0 1 0 C1.24965165 10.554717 0.67901457 20.56612375 -1 31 C-1.66 30.67 -2.32 30.34 -3 30 C-3 23.73 -3 17.46 -3 11 C-2.34 10.67 -1.68 10.34 -1 10 C-0.53248212 7.64400765 -0.53248212 7.64400765 -0.375 4.9375 C-0.30023438 4.01839844 -0.22546875 3.09929687 -0.1484375 2.15234375 C-0.09945312 1.44207031 -0.05046875 0.73179687 0 0 Z " fill="#747474" transform="translate(117,228)" data-index="22" style="fill: rgb(116, 116, 116); stroke: rgb(116, 116, 116); visibility: visible;"></path>
<path d="M0 0 C5.44693314 -0.09688221 10.63904667 -0.12862175 16 1 C14.68 1.33 13.36 1.66 12 2 C12.33 2.66 12.66 3.32 13 4 C16.02934491 4.65772428 16.02934491 4.65772428 19 5 C19 5.33 19 5.66 19 6 C12.4294834 6.24794402 6.43028541 5.32388229 0 4 C0 2.68 0 1.36 0 0 Z " fill="#232323" transform="translate(83,98)" data-index="23" style="fill: rgb(36, 36, 36); visibility: visible; opacity: 1;"></path>
<path d="M0 0 C3 0.125 3 0.125 4 1.125 C4.1875 3.5625 4.1875 3.5625 4 6.125 C3.34 6.785 2.68 7.445 2 8.125 C-2.55555556 7.56944444 -2.55555556 7.56944444 -4 6.125 C-4.125 3.625 -4.125 3.625 -4 1.125 C-3 0.125 -3 0.125 0 0 Z " fill="#101010" transform="translate(495,186.875)" data-index="24" style="fill: rgb(20, 20, 20); stroke: rgb(20, 20, 20); visibility: visible;"></path>
<path d="M0 0 C1.60568666 0.28317926 3.20952047 0.57687791 4.8125 0.875 C6.15248047 1.11863281 6.15248047 1.11863281 7.51953125 1.3671875 C10 2 10 2 13 4 C12.67 4.99 12.34 5.98 12 7 C10.58318366 6.68817931 9.16655349 6.37551263 7.75 6.0625 C6.96109375 5.88847656 6.1721875 5.71445313 5.359375 5.53515625 C3.23121297 5.052444 1.11467158 4.53836822 -1 4 C-0.67 2.68 -0.34 1.36 0 0 Z " fill="#111111" transform="translate(71,94)" data-index="25" style="fill: rgb(20, 20, 20); visibility: visible; opacity: 1;"></path>
<path d="M0 0 C0.33 0 0.66 0 1 0 C1.28875 1.11375 1.5775 2.2275 1.875 3.375 C3.05877473 7.18938523 3.66587795 8.29370009 7.125 10.125 C8.053125 10.558125 8.053125 10.558125 9 11 C8.01 11.33 7.02 11.66 6 12 C5.67 12.66 5.34 13.32 5 14 C1.11137013 12.73882275 -0.89375599 11.54735833 -3 8 C-3 7.34 -3 6.68 -3 6 C-2.34 6 -1.68 6 -1 6 C-0.67 4.02 -0.34 2.04 0 0 Z " fill="#2B2B2B" transform="translate(42,29)" data-index="26" style="fill: rgb(44, 44, 44); stroke: rgb(44, 44, 44); visibility: visible;"></path>
<path d="M0 0 C0.66 0.33 1.32 0.66 2 1 C1.2884375 1.5878125 1.2884375 1.5878125 0.5625 2.1875 C-1.20773142 3.91711841 -1.20773142 3.91711841 -1.375 6.4375 C-2.23134741 9.9485244 -4.10202284 10.99370812 -7 13 C-7 12.34 -7 11.68 -7 11 C-7.99 10.67 -8.98 10.34 -10 10 C-7.02911382 6.00073014 -3.87051275 3.07881696 0 0 Z " fill="#2F2F2F" transform="translate(72,47)" data-index="27" style="fill: rgb(44, 44, 44); stroke: rgb(44, 44, 44); visibility: visible;"></path>
<path d="M0 0 C5.12583611 -0.10251672 9.94997778 -0.03590199 15 1 C15 1.99 15 2.98 15 4 C9.47322267 4.19392201 5.24385089 3.7479503 0 2 C0 1.34 0 0.68 0 0 Z " fill="#050505" transform="translate(95,100)" data-index="28" style="fill: rgb(4, 4, 4); visibility: visible; opacity: 1;"></path>
<path d="M0 0 C-0.33 1.65 -0.66 3.3 -1 5 C-3.06172613 5.33808686 -5.1244203 5.67027361 -7.1875 6 C-8.91033203 6.2784375 -8.91033203 6.2784375 -10.66796875 6.5625 C-13.50415393 6.93489477 -16.14719564 7.08596021 -19 7 C-15.93753253 5.21590198 -13.77920727 4.77119979 -10.25 4.875 C-9.45078125 4.89304687 -8.6515625 4.91109375 -7.828125 4.9296875 C-7.22484375 4.95289062 -6.6215625 4.97609375 -6 5 C-6 3.68 -6 2.36 -6 1 C-4 0 -4 0 0 0 Z " fill="#2D2D2D" transform="translate(144,98)" data-index="29" style="fill: rgb(44, 44, 44); visibility: visible; opacity: 1;"></path>
<path d="M0 0 C0.33 0 0.66 0 1 0 C1 4.62 1 9.24 1 14 C0.67 14 0.34 14 0 14 C-0.33 12.35 -0.66 10.7 -1 9 C-1.66 9.99 -2.32 10.98 -3 12 C-3 9.36 -3 6.72 -3 4 C-2.34 3.67 -1.68 3.34 -1 3 C-0.67 2.01 -0.34 1.02 0 0 Z " fill="#1B1B1B" transform="translate(117,214)" data-index="30" style="fill: rgb(28, 28, 28); stroke: rgb(28, 28, 28); visibility: visible;"></path>
<path d="M0 0 C0.99 0.33 1.98 0.66 3 1 C2.67 3.31 2.34 5.62 2 8 C1.01 8 0.02 8 -1 8 C-1.04241723 5.66705225 -1.04092937 3.33297433 -1 1 C-0.67 0.67 -0.34 0.34 0 0 Z " fill="#1B1B1B" transform="translate(39,27)" data-index="31" style="fill: rgb(28, 28, 28); stroke: rgb(28, 28, 28); visibility: visible;"></path>
<path d="M0 0 C0.99 0.33 1.98 0.66 3 1 C3 4.3 3 7.6 3 11 C2.67 10.01 2.34 9.02 2 8 C1.34 8 0.68 8 0 8 C0 5.36 0 2.72 0 0 Z " fill="#080808" transform="translate(56,69)" data-index="32" style="fill: rgb(4, 4, 4); stroke: rgb(4, 4, 4); visibility: visible;"></path>
<path d="M0 0 C-0.33 0.99 -0.66 1.98 -1 3 C-3.97 3 -6.94 3 -10 3 C-9 1 -9 1 -7.25 0.375 C-4.79549443 -0.03408426 -2.4840589 -0.06900164 0 0 Z " fill="#020202" transform="translate(139,100)" data-index="33" style="fill: rgb(4, 4, 4); visibility: visible; opacity: 1;"></path>
<path d="M0 0 C0.33 0.99 0.66 1.98 1 3 C1.66 3 2.32 3 3 3 C3 4.98 3 6.96 3 9 C2.34 8.01 1.68 7.02 1 6 C0.34 7.32 -0.32 8.64 -1 10 C-1.125 2.25 -1.125 2.25 0 0 Z " fill="#3E3E3E" transform="translate(112,82)" data-index="34" style="fill: rgb(60, 60, 60); visibility: visible; opacity: 1;"></path>
<path d="M0 0 C0.99 0 1.98 0 3 0 C2.67 2.31 2.34 4.62 2 7 C1.34 7 0.68 7 0 7 C0 4.69 0 2.38 0 0 Z " fill="#0E0E0E" transform="translate(113,78)" data-index="35" style="fill: rgb(12, 12, 12); stroke: rgb(12, 12, 12); visibility: visible;"></path>
<path d="M0 0 C0.66 0.33 1.32 0.66 2 1 C2 1.66 2 2.32 2 3 C1.34 3 0.68 3 0 3 C-0.33 5.97 -0.66 8.94 -1 12 C-1.33 12 -1.66 12 -2 12 C-2.28571429 3.42857143 -2.28571429 3.42857143 0 0 Z " fill="#C7C7C7" transform="translate(117,78)" data-index="36" style="fill: rgb(255, 255, 255); visibility: visible; opacity: 1;"></path>
<path d="M362,166c2.625,0.375 2.625,0.375 5,1c-0.63223,9.66548 -1.9679,19.18121 -3.43359,28.74609c-0.24058,1.5851 -0.48098,3.17023 -0.72121,4.75539c-0.50074,3.29738 -1.00457,6.59427 -1.51048,9.89085c-0.64686,4.21758 -1.28444,8.4365 -1.9196,12.65585c-0.49251,3.26318 -0.9906,6.5255 -1.4903,9.78759c-0.2375,1.55579 -0.47312,3.11188 -0.70677,4.66825c-0.32659,2.17073 -0.66087,4.34015 -0.9971,6.5094c-0.18796,1.23177 -0.37591,2.46355 -0.56956,3.73265c-0.59463,2.97044 -1.41714,5.49687 -2.65138,8.25392c-1.65,-0.33 -3.3,-0.66 -5,-1c0,-4 0,-8 0,-12c-0.59168,0.68707 -1.18336,1.37414 -1.79297,2.08203c-0.7902,0.90105 -1.58039,1.80211 -2.39453,2.73047c-0.7773,0.89332 -1.55461,1.78664 -2.35547,2.70703c-2.88729,2.91483 -5.47821,5.07144 -9.55469,5.91406c-3.53375,0.00703 -5.50617,-0.12884 -8.33984,-2.30859c-3.95188,-5.37455 -3.04695,-11.69753 -2.5625,-18.125c2.23432,-9.37138 7.99474,-17.36618 15.85547,-22.86719c3.57432,-1.88807 7.12691,-2.63674 11.14453,-2.13281c2.03189,0.9335 4.03966,1.92434 6,3c0.14695,-1.71316 0.14695,-1.71316 0.29688,-3.46094c0.92864,-10.26876 2.17695,-20.46647 3.70313,-30.66406c0.16597,-1.14388 0.33193,-2.28776 0.50293,-3.46631c0.24605,-1.59836 0.24605,-1.59836 0.49707,-3.229c0.14438,-0.95149 0.28875,-1.90298 0.4375,-2.8833c0.5625,-2.29639 0.5625,-2.29639 2.5625,-4.29639zM417.01808,165.75276c1.24124,0.00214 1.24124,0.00214 2.50755,0.00432c0.9376,-0.00308 1.87519,-0.00615 2.8412,-0.00932c1.01461,0.00719 2.02922,0.01437 3.07457,0.02177c1.55702,0.00069 1.55702,0.00069 3.14549,0.00139c2.19655,0.00302 4.3931,0.01092 6.58961,0.02327c3.37548,0.01825 6.75069,0.02051 10.12622,0.02026c2.12956,0.00492 4.25912,0.01074 6.38867,0.01758c1.01663,0.00111 2.03326,0.00223 3.0807,0.00337c0.93444,0.00638 1.86889,0.01276 2.83165,0.01933c0.8267,0.00381 1.65339,0.00762 2.50514,0.01155c1.8911,0.13371 1.8911,0.13371 2.8911,1.13371c0.125,2.5 0.125,2.5 0,5c-1,1 -1,1 -2.7527,1.12025c-0.76167,-0.00222 -1.52334,-0.00444 -2.30809,-0.00673c-0.86082,-0.00008 -1.72163,-0.00015 -2.60854,-0.00023c-0.93541,-0.00516 -1.87082,-0.01032 -2.83458,-0.01564c-0.95301,-0.00141 -1.90603,-0.00283 -2.88792,-0.00429c-3.05692,-0.00562 -6.11377,-0.01817 -9.17067,-0.03087c-2.06706,-0.00501 -4.13411,-0.00958 -6.20117,-0.01367c-5.0788,-0.01105 -10.15755,-0.02833 -15.23633,-0.04883c-0.05552,0.70354 -0.11104,1.40707 -0.16824,2.13193c-0.61193,7.57973 -1.70134,15.04819 -2.89426,22.55557c-0.18627,1.19045 -0.37254,2.3809 -0.56445,3.60742c-0.45456,2.9022 -0.9123,5.80386 -1.37305,8.70508c1.65769,-0.01571 1.65769,-0.01571 3.34888,-0.03174c4.09811,-0.03619 8.19621,-0.05916 12.29443,-0.07812c1.77411,-0.01006 3.54821,-0.02371 5.32227,-0.04102c2.54928,-0.02424 5.09833,-0.0356 7.64771,-0.04443c0.79385,-0.01032 1.58769,-0.02065 2.40559,-0.03128c3.86336,-0.00079 5.68952,0.03219 8.98112,2.22659c-0.33,1.65 -0.66,3.3 -1,5c-13.53,0 -27.06,0 -41,0c-0.66,5.61 -1.32,11.22 -2,17c-0.37053,3.02139 -0.74409,6.04241 -1.125,9.0625c-0.08637,0.68643 -0.17273,1.37285 -0.26172,2.08008c-0.20382,1.61922 -0.40844,3.23833 -0.61328,4.85742c1.80187,0.03758 1.80187,0.03758 3.64014,0.07593c4.44673,0.094 8.8933,0.19424 13.33984,0.29639c1.92639,0.04338 3.85283,0.08505 5.7793,0.125c2.76526,0.05764 5.53032,0.12135 8.29541,0.18628c0.86463,0.01671 1.72926,0.03342 2.62009,0.05064c6.09748,0.15189 6.09748,0.15189 8.32523,1.26576c-0.875,4.875 -0.875,4.875 -2,6c-1.46805,0.09823 -2.94077,0.12798 -4.41211,0.12939c-0.93767,0.00315 -1.87534,0.0063 -2.84143,0.00955c-1.01977,-0.00202 -2.03954,-0.00405 -3.09021,-0.00613c-1.55914,0.00144 -1.55914,0.00144 -3.14978,0.0029c-2.20252,0.00068 -4.40503,-0.00117 -6.60754,-0.00534c-3.38432,-0.00535 -6.76851,-0.00006 -10.15283,0.00635c-2.13411,-0.00066 -4.26823,-0.00194 -6.40234,-0.00391c-1.01977,0.00202 -2.03954,0.00405 -3.09021,0.00613c-1.40651,-0.00473 -1.40651,-0.00473 -2.84143,-0.00955c-0.82971,-0.0008 -1.65943,-0.00159 -2.51428,-0.00241c-1.89783,-0.12698 -1.89783,-0.12698 -2.89783,-1.12698c-0.2371,-6.31062 0.31664,-12.16367 1.39063,-18.37109c0.21699,-1.30808 0.21699,-1.30808 0.43837,-2.64259c0.46721,-2.80906 0.94411,-5.61638 1.42101,-8.42381c0.48604,-2.9091 0.96953,-5.81862 1.45284,-8.72818c0.31957,-1.92297 0.63995,-3.8458 0.96115,-5.76849c1.44575,-8.6668 2.79297,-17.34636 4.09285,-26.03629c0.40369,-2.67834 0.81887,-5.35439 1.24316,-8.02954c0.15775,-1.00676 0.3155,-2.01352 0.47803,-3.05078c0.16581,-0.99387 0.33161,-1.98773 0.50244,-3.01172c0.14719,-0.89848 0.29439,-1.79695 0.44604,-2.72266c0.74443,-2.87504 1.56124,-4.09083 4.59157,-4.46208z" id="path-11 1" fill="url(#grad-37)" fill-rule="nonzero" stroke="url(#grad-37)" stroke-width="0.25" stroke-linecap="butt" stroke-linejoin="miter" stroke-miterlimit="10" stroke-dasharray="" stroke-dashoffset="0" font-family="none" font-weight="none" font-size="none" text-anchor="none" style="mix-blend-mode: normal; opacity: 1; display: none;" data-index="37"></path><path d="M362,166c2.625,0.375 2.625,0.375 5,1c-0.63223,9.66548 -1.9679,19.18121 -3.43359,28.74609c-0.24058,1.5851 -0.48098,3.17023 -0.72121,4.75539c-0.50074,3.29738 -1.00457,6.59427 -1.51048,9.89085c-0.64686,4.21758 -1.28444,8.4365 -1.9196,12.65585c-0.49251,3.26318 -0.9906,6.5255 -1.4903,9.78759c-0.2375,1.55579 -0.47312,3.11188 -0.70677,4.66825c-0.32659,2.17073 -0.66087,4.34015 -0.9971,6.5094c-0.18796,1.23177 -0.37591,2.46355 -0.56956,3.73265c-0.59463,2.97044 -1.41714,5.49687 -2.65138,8.25392c-1.65,-0.33 -3.3,-0.66 -5,-1c0,-4 0,-8 0,-12c-0.59168,0.68707 -1.18336,1.37414 -1.79297,2.08203c-0.7902,0.90105 -1.58039,1.80211 -2.39453,2.73047c-0.7773,0.89332 -1.55461,1.78664 -2.35547,2.70703c-2.88729,2.91483 -5.47821,5.07144 -9.55469,5.91406c-3.53375,0.00703 -5.50617,-0.12884 -8.33984,-2.30859c-3.95188,-5.37455 -3.04695,-11.69753 -2.5625,-18.125c2.23432,-9.37138 7.99474,-17.36618 15.85547,-22.86719c3.57432,-1.88807 7.12691,-2.63674 11.14453,-2.13281c2.03189,0.9335 4.03966,1.92434 6,3c0.14695,-1.71316 0.14695,-1.71316 0.29688,-3.46094c0.92864,-10.26876 2.17695,-20.46647 3.70313,-30.66406c0.16597,-1.14388 0.33193,-2.28776 0.50293,-3.46631c0.24605,-1.59836 0.24605,-1.59836 0.49707,-3.229c0.14438,-0.95149 0.28875,-1.90298 0.4375,-2.8833c0.5625,-2.29639 0.5625,-2.29639 2.5625,-4.29639zM417.01808,165.75276c1.24124,0.00214 1.24124,0.00214 2.50755,0.00432c0.9376,-0.00308 1.87519,-0.00615 2.8412,-0.00932c1.01461,0.00719 2.02922,0.01437 3.07457,0.02177c1.55702,0.00069 1.55702,0.00069 3.14549,0.00139c2.19655,0.00302 4.3931,0.01092 6.58961,0.02327c3.37548,0.01825 6.75069,0.02051 10.12622,0.02026c2.12956,0.00492 4.25912,0.01074 6.38867,0.01758c1.01663,0.00111 2.03326,0.00223 3.0807,0.00337c0.93444,0.00638 1.86889,0.01276 2.83165,0.01933c0.8267,0.00381 1.65339,0.00762 2.50514,0.01155c1.8911,0.13371 1.8911,0.13371 2.8911,1.13371c0.125,2.5 0.125,2.5 0,5c-1,1 -1,1 -2.7527,1.12025c-0.76167,-0.00222 -1.52334,-0.00444 -2.30809,-0.00673c-0.86082,-0.00008 -1.72163,-0.00015 -2.60854,-0.00023c-0.93541,-0.00516 -1.87082,-0.01032 -2.83458,-0.01564c-0.95301,-0.00141 -1.90603,-0.00283 -2.88792,-0.00429c-3.05692,-0.00562 -6.11377,-0.01817 -9.17067,-0.03087c-2.06706,-0.00501 -4.13411,-0.00958 -6.20117,-0.01367c-5.0788,-0.01105 -10.15755,-0.02833 -15.23633,-0.04883c-0.05552,0.70354 -0.11104,1.40707 -0.16824,2.13193c-0.61193,7.57973 -1.70134,15.04819 -2.89426,22.55557c-0.18627,1.19045 -0.37254,2.3809 -0.56445,3.60742c-0.45456,2.9022 -0.9123,5.80386 -1.37305,8.70508c1.65769,-0.01571 1.65769,-0.01571 3.34888,-0.03174c4.09811,-0.03619 8.19621,-0.05916 12.29443,-0.07812c1.77411,-0.01006 3.54821,-0.02371 5.32227,-0.04102c2.54928,-0.02424 5.09833,-0.0356 7.64771,-0.04443c0.79385,-0.01032 1.58769,-0.02065 2.40559,-0.03128c3.86336,-0.00079 5.68952,0.03219 8.98112,2.22659c-0.33,1.65 -0.66,3.3 -1,5c-13.53,0 -27.06,0 -41,0c-0.66,5.61 -1.32,11.22 -2,17c-0.37053,3.02139 -0.74409,6.04241 -1.125,9.0625c-0.08637,0.68643 -0.17273,1.37285 -0.26172,2.08008c-0.20382,1.61922 -0.40844,3.23833 -0.61328,4.85742c1.80187,0.03758 1.80187,0.03758 3.64014,0.07593c4.44673,0.094 8.8933,0.19424 13.33984,0.29639c1.92639,0.04338 3.85283,0.08505 5.7793,0.125c2.76526,0.05764 5.53032,0.12135 8.29541,0.18628c0.86463,0.01671 1.72926,0.03342 2.62009,0.05064c6.09748,0.15189 6.09748,0.15189 8.32523,1.26576c-0.875,4.875 -0.875,4.875 -2,6c-1.46805,0.09823 -2.94077,0.12798 -4.41211,0.12939c-0.93767,0.00315 -1.87534,0.0063 -2.84143,0.00955c-1.01977,-0.00202 -2.03954,-0.00405 -3.09021,-0.00613c-1.55914,0.00144 -1.55914,0.00144 -3.14978,0.0029c-2.20252,0.00068 -4.40503,-0.00117 -6.60754,-0.00534c-3.38432,-0.00535 -6.76851,-0.00006 -10.15283,0.00635c-2.13411,-0.00066 -4.26823,-0.00194 -6.40234,-0.00391c-1.01977,0.00202 -2.03954,0.00405 -3.09021,0.00613c-1.40651,-0.00473 -1.40651,-0.00473 -2.84143,-0.00955c-0.82971,-0.0008 -1.65943,-0.00159 -2.51428,-0.00241c-1.89783,-0.12698 -1.89783,-0.12698 -2.89783,-1.12698c-0.2371,-6.31062 0.31664,-12.16367 1.39063,-18.37109c0.21699,-1.30808 0.21699,-1.30808 0.43837,-2.64259c0.46721,-2.80906 0.94411,-5.61638 1.42101,-8.42381c0.48604,-2.9091 0.96953,-5.81862 1.45284,-8.72818c0.31957,-1.92297 0.63995,-3.8458 0.96115,-5.76849c1.44575,-8.6668 2.79297,-17.34636 4.09285,-26.03629c0.40369,-2.67834 0.81887,-5.35439 1.24316,-8.02954c0.15775,-1.00676 0.3155,-2.01352 0.47803,-3.05078c0.16581,-0.99387 0.33161,-1.98773 0.50244,-3.01172c0.14719,-0.89848 0.29439,-1.79695 0.44604,-2.72266c0.74443,-2.87504 1.56124,-4.09083 4.59157,-4.46208zM302,213c3.125,1.5 3.125,1.5 5,3c0.33,-0.99 0.66,-1.98 1,-3c1.65,0 3.3,0 5,0c0.54595,9.18 -1.00464,17.76773 -2.61523,26.75195c-0.77963,4.55512 -1.35675,9.13874 -1.95508,13.7207c-0.42969,2.52734 -0.42969,2.52734 -1.42969,3.52734c-1.65,0 -3.3,0 -5,0c0,-5.94 0,-11.88 0,-18c-1.17563,1.69125 -2.35125,3.3825 -3.5625,5.125c-4.25187,5.83693 -9.03956,12.16778 -16.4375,13.875c-3.0625,-0.0625 -3.0625,-0.0625 -6,-1c-3.92943,-4.14183 -5.32068,-6.93391 -5.20703,-12.66797c0.91322,-10.28666 6.18028,-20.07613 13.89453,-26.89453c5.52664,-4.44505 10.31107,-5.21795 17.3125,-4.4375z" fill="url(#grad-38)" fill-rule="nonzero" stroke="url(#grad-38)" stroke-width="0.25" stroke-linecap="butt" stroke-linejoin="miter" stroke-miterlimit="10" stroke-dasharray="" stroke-dashoffset="0" font-family="none" font-weight="none" font-size="none" text-anchor="none" style="mix-blend-mode: normal; display: none;" data-index="38"></path><path d="M362,166c2.625,0.375 2.625,0.375 5,1c-0.63223,9.66548 -1.9679,19.18121 -3.43359,28.74609c-0.24058,1.5851 -0.48098,3.17023 -0.72121,4.75539c-0.50074,3.29738 -1.00457,6.59427 -1.51048,9.89085c-0.64686,4.21758 -1.28444,8.4365 -1.9196,12.65585c-0.49251,3.26318 -0.9906,6.5255 -1.4903,9.78759c-0.2375,1.55579 -0.47312,3.11188 -0.70677,4.66825c-0.32659,2.17073 -0.66087,4.34015 -0.9971,6.5094c-0.18796,1.23177 -0.37591,2.46355 -0.56956,3.73265c-0.59463,2.97044 -1.41714,5.49687 -2.65138,8.25392c-1.65,-0.33 -3.3,-0.66 -5,-1c0,-4 0,-8 0,-12c-0.59168,0.68707 -1.18336,1.37414 -1.79297,2.08203c-0.7902,0.90105 -1.58039,1.80211 -2.39453,2.73047c-0.7773,0.89332 -1.55461,1.78664 -2.35547,2.70703c-2.88729,2.91483 -5.47821,5.07144 -9.55469,5.91406c-3.53375,0.00703 -5.50617,-0.12884 -8.33984,-2.30859c-3.95188,-5.37455 -3.04695,-11.69753 -2.5625,-18.125c2.23432,-9.37138 7.99474,-17.36618 15.85547,-22.86719c3.57432,-1.88807 7.12691,-2.63674 11.14453,-2.13281c2.03189,0.9335 4.03966,1.92434 6,3c0.14695,-1.71316 0.14695,-1.71316 0.29688,-3.46094c0.92864,-10.26876 2.17695,-20.46647 3.70313,-30.66406c0.16597,-1.14388 0.33193,-2.28776 0.50293,-3.46631c0.24605,-1.59836 0.24605,-1.59836 0.49707,-3.229c0.14438,-0.95149 0.28875,-1.90298 0.4375,-2.8833c0.5625,-2.29639 0.5625,-2.29639 2.5625,-4.29639zM529.5625,164.9375c1.20656,0.03094 1.20656,0.03094 2.4375,0.0625c1.19969,4.32543 0.72175,7.50875 -0.1875,11.875c-0.28455,1.40585 -0.56696,2.81213 -0.84766,4.21875c-0.15485,0.77086 -0.3097,1.54172 -0.46924,2.33594c-1.15473,5.98868 -2.12909,12.01201 -3.13696,18.02686c-0.16218,0.9502 -0.32436,1.9004 -0.49146,2.87939c-0.14325,0.85126 -0.28649,1.70253 -0.43408,2.57959c-0.43311,2.08447 -0.43311,2.08447 -1.43311,4.08447c0.84305,-0.0116 1.68609,-0.0232 2.55469,-0.03516c1.0957,-0.00902 2.19141,-0.01805 3.32031,-0.02734c1.63582,-0.0174 1.63582,-0.0174 3.30469,-0.03516c2.82031,0.09766 2.82031,0.09766 4.82031,1.09766c0,1.65 0,3.3 0,5c-2.88416,1.44208 -5.41722,1.09395 -8.625,1.0625c-1.18852,-0.00902 -2.37703,-0.01805 -3.60156,-0.02734c-0.91523,-0.0116 -1.83047,-0.0232 -2.77344,-0.03516c-0.14695,1.13309 -0.14695,1.13309 -0.29687,2.28906c-1.06638,7.85073 -2.33163,15.65817 -3.70312,23.46094c-0.24895,1.46494 -0.24895,1.46494 -0.50293,2.95947c-0.24605,1.37358 -0.24605,1.37358 -0.49707,2.7749c-0.14437,0.8221 -0.28875,1.6442 -0.4375,2.49121c-0.5625,2.02441 -0.5625,2.02441 -2.5625,4.02441c-2.125,-0.375 -2.125,-0.375 -4,-1c-1.32326,-3.75173 -0.72855,-6.72663 -0.03906,-10.59375c0.2243,-1.27746 0.44859,-2.55492 0.67969,-3.87109c0.24474,-1.34506 0.48953,-2.69011 0.73438,-4.03516c0.2377,-1.34492 0.47469,-2.68998 0.71094,-4.03516c1.88028,-10.58728 1.88028,-10.58728 2.91406,-14.46484c-1.26457,0.0348 -1.26457,0.0348 -2.55469,0.07031c-1.64355,0.02707 -1.64355,0.02707 -3.32031,0.05469c-1.09055,0.0232 -2.18109,0.04641 -3.30469,0.07031c-2.82031,-0.19531 -2.82031,-0.19531 -4.82031,-2.19531c0,-1.32 0,-2.64 0,-4c3.00314,-1.50157 5.79068,-1.09281 9.125,-1.0625c1.28133,0.00902 2.56266,0.01805 3.88281,0.02734c1.48113,0.0174 1.48113,0.0174 2.99219,0.03516c-0.03086,-0.97018 -0.06171,-1.94036 -0.09351,-2.93994c0.00397,-4.44635 0.76431,-8.66324 1.5896,-13.021c0.153,-0.83117 0.306,-1.66235 0.46364,-2.51871c0.32236,-1.74351 0.64776,-3.48645 0.97606,-5.22885c0.50384,-2.67781 0.99663,-5.35748 1.48804,-8.0376c0.31511,-1.69673 0.63084,-3.39335 0.94727,-5.08984c0.14796,-0.80408 0.29591,-1.60817 0.44835,-2.43661c1.27244,-6.7053 1.27244,-6.7053 4.74306,-6.78995z" id="path-11 1" fill="url(#grad-39)" fill-rule="nonzero" stroke="url(#grad-39)" stroke-width="0.25" stroke-linecap="butt" stroke-linejoin="miter" stroke-miterlimit="10" stroke-dasharray="" stroke-dashoffset="0" font-family="none" font-weight="none" font-size="none" text-anchor="none" style="mix-blend-mode: normal; opacity: 1; display: none;" data-index="39"></path></svg>